<svg width="343" height="392" viewBox="0 0 343 392" fill="none" xmlns="http://www.w3.org/2000/svg">
<g clip-path="url(#clip0_3_28)">
<path d="M212.381 56.4568C213.672 56.4398 214.999 56.5958 216.242 56.1584C218.791 55.9312 221.362 55.9787 223.918 55.9821C222.081 56.3479 220.206 56.4902 218.334 56.4059V56.9314C217.549 56.9314 216.753 56.9314 215.964 56.8908L216.001 57.4265C215.371 57.4265 214.745 57.4027 214.122 57.3824L214.075 57.8299C212.839 57.8672 211.704 58.5081 210.451 58.3385C210.228 59.2303 209.053 58.6233 208.457 58.7793L208.487 59.3184C208.149 59.3015 207.488 59.2608 207.16 59.2472C206.916 59.7603 206.454 59.9502 205.775 59.8168C205.173 60.1801 204.458 60.3092 203.767 60.1796V60.6475C200.875 60.9595 198.275 62.5564 195.427 63.0481C195.129 63.5838 194.614 63.7262 193.876 63.4583L193.944 63.9703C192.928 63.9093 192.129 64.7129 191.096 64.4111L191.13 65.0485L190.28 64.8146C190.054 65.4746 189.528 65.6498 188.702 65.3401L188.807 66.0182C188.587 65.9504 188.13 65.808 187.923 65.7436C187.727 66.3776 187.225 66.5641 186.42 66.3166L186.396 66.7811C185.573 66.7608 184.892 67.4084 184.063 67.2388L184.083 67.7373C183.108 67.7678 182.271 68.395 181.266 68.1882L181.212 68.6256C180.629 68.6256 180.047 68.6256 179.474 68.6256L179.434 68.1543C178.388 68.5578 177.609 67.6016 176.589 67.7881L176.62 67.1575L175.188 67.3236L175.238 66.6184L174.223 66.9371L174.321 66.1674L173.281 66.4827L173.369 65.7029C173.112 65.7673 172.594 65.9029 172.353 65.9741L172.455 65.2248L171.476 65.4859L171.51 64.8959C169.512 64.4992 168.039 62.9023 166.262 62.0207L166.333 61.485L165.378 61.719L165.401 61.1324C164.179 60.8442 163.194 59.8507 162.256 59.037C163.272 59.4473 164.206 60.3525 165.388 60.1796L165.283 60.7865L166.712 60.6848L166.766 61.3223L167.728 61.0137L167.63 61.7325L169.133 61.563L169.059 62.1869C169.973 61.8003 170.593 62.7565 171.503 62.553L171.392 63.0921C172.299 62.8039 172.939 63.6889 173.84 63.4549L173.732 64.0246C174.598 64.0246 175.763 64.1602 176.308 64.9197L177.599 64.8519L177.49 65.4622C179.102 65.3842 180.717 65.5096 182.336 65.4418L182.248 64.7434C182.492 64.8214 182.983 64.9875 183.226 65.0824V64.428L184.696 64.5399L184.588 63.9601C186.423 63.9601 187.974 62.5259 189.823 62.6209L189.782 62.0512C190.144 62.0885 190.866 62.1563 191.228 62.1869L191.167 61.6037C192.183 61.7461 193.009 60.8408 194.066 61.2307L193.971 60.6102L195.444 60.7933L195.396 60.1695C195.735 60.1898 196.385 60.2441 196.714 60.2678C197.414 59.3795 198.928 59.4168 200.005 59.2235C200.516 58.7556 201.2 58.7827 201.857 58.8064C202.287 58.0164 203.381 58.542 204.051 58.1012C204.722 57.6604 205.535 57.9351 206.28 57.9757L206.131 57.3722C206.743 57.396 207.356 57.4095 207.973 57.4197C209.165 56.2126 211.433 57.6875 212.381 56.4568Z" fill="#FEFEFE"/>
<path d="M229.8 69.0596C229.942 68.1746 230.105 67.2863 230.24 66.3979C230.189 70.7108 229.546 74.9761 229.299 79.2822C228.141 78.9228 226.979 78.577 225.818 78.265C226.942 75.305 226.834 72.0908 227.267 68.9951H227.328C228.144 69.046 228.974 69.0596 229.8 69.0596Z" fill="#FEFEFE"/>
<path d="M184.303 88.5115C186.707 89.4947 188.648 91.2239 190.71 92.7599C187.723 95.4927 184.188 98.1374 180.016 98.4188C181.719 97.712 183.086 96.3767 183.832 94.6891C184.808 92.7836 184.459 90.5662 184.303 88.5115Z" fill="#FEFEFE"/>
<path d="M222.567 88.3589C224.978 89.6168 225.246 92.6175 224.937 95.0282C222.865 97.2863 219.553 98.6629 216.492 98.0628C213.783 97.0456 211.159 95.4656 209.527 93.0074C210.607 91.9699 211.697 90.8001 213.309 90.7153C212.513 93.0888 213.309 96.1132 215.507 97.4558C217.271 98.3204 219.79 98.4934 221.148 96.8116C223.376 94.6484 223.654 91.1561 222.567 88.3589Z" fill="#FEFEFE"/>
<path d="M165.283 93.3091C166.794 91.9952 168.414 90.8121 170.125 89.7727C169.865 91.2255 170.003 92.7219 170.524 94.1024C171.046 95.4829 171.932 96.6958 173.088 97.6118L173.393 98.0186C170.758 97.1133 168.435 95.5435 165.984 94.2652L165.892 94.1364C165.696 93.8584 165.49 93.5803 165.283 93.3091Z" fill="#FEFEFE"/>
<path d="M177.944 90.5966C179.708 89.7659 181.035 92.8209 179.2 93.4956C177.372 94.3534 176.159 91.3494 177.944 90.5966Z" fill="#FEFEFE"/>
<path d="M217.945 92.1664C218.053 91.1052 219.685 90.9831 220.027 91.946C220.366 92.5021 220.197 93.1497 220.048 93.7363C219.025 94.0686 217.539 93.3972 217.945 92.1664Z" fill="#FEFEFE"/>
<path d="M182.552 131.141C186.67 132.121 190.943 132.094 195.149 131.908C197.255 131.731 199.182 132.823 201.265 132.901C202.368 132.874 203.415 132.443 204.492 132.25C206.96 131.728 209.571 132.128 211.941 131.104C210.096 133.23 208 135.332 205.264 136.237C202.914 136.956 200.408 137.482 197.949 137.044C192.502 136.028 187.285 134.028 182.552 131.141Z" fill="#FEFEFE"/>
<path d="M194.404 162.213C201.305 161.423 208.707 159.782 213.81 154.713C212.48 156.91 211.101 159.226 208.833 160.599C205.176 162.793 200.797 163.311 196.605 163.098C193.537 162.877 190.459 162.965 187.391 162.799C189.714 162.504 192.081 162.66 194.404 162.213Z" fill="#FEFEFE"/>
<path d="M124.615 159.48C124.821 160.158 124.954 160.867 125.113 161.569C125.349 162.003 125.503 162.478 125.566 162.969C126.013 163.335 126.142 163.847 125.959 164.512H126.43C126.386 165.342 126.965 166.024 126.894 166.885H127.503C127.432 167.133 127.293 167.638 127.222 167.885L127.981 167.797L127.683 168.777H128.394C128.34 169.014 128.221 169.496 128.164 169.733L128.892 169.706C128.831 169.947 128.705 170.421 128.638 170.659L129.349 170.625C129.291 170.866 129.179 171.344 129.125 171.588L129.677 171.55C130.304 172.056 129.677 173.704 130.693 173.425C130.47 174.473 132.068 174.592 131.59 175.724C131.853 175.737 132.103 175.839 132.298 176.015C132.494 176.19 132.623 176.428 132.664 176.687C133.002 177.396 133.94 177.762 133.991 178.63H134.492C134.455 178.837 134.377 179.247 134.337 179.454L135.085 179.722C136.863 181.549 138.701 183.316 140.476 185.147L140.5 185.689C141.918 185.147 142.155 186.706 141.854 187.7C141.116 189.531 141.647 191.562 141.319 193.464C141.234 193.257 141.068 192.85 140.98 192.643L140.445 192.586C140.486 192.375 140.567 191.948 140.604 191.735C139.755 191.904 139.365 191.026 138.938 190.49C138.461 189.585 137.601 188.968 137.11 188.086C136.995 187.961 136.771 187.707 136.663 187.578C136.555 187.449 136.433 187.283 136.358 187.185C136.663 186.052 134.862 186.869 135.359 185.56L134.773 185.588C134.838 185.357 134.97 184.909 135.034 184.672C133.981 184.94 133.582 183.502 133.524 182.722L133.057 182.824C132.877 181.702 131.55 181.149 131.601 179.905L131.001 179.959C131.072 179.712 131.211 179.217 131.286 178.972L130.669 179.105C130.5 178.589 130.331 178.067 130.189 177.548L129.623 177.589C129.687 177.352 129.813 176.884 129.88 176.653L129.142 176.687L129.386 175.69L128.797 175.806C128.743 175.111 128.15 174.582 128.336 173.853L127.828 173.91C127.971 173.124 127.033 172.734 127.432 171.934L126.829 171.995C126.877 171.622 126.965 170.879 127.012 170.51L126.335 170.621C126.376 170.255 126.46 169.516 126.504 169.15H125.912C126.118 168.017 125.336 167.116 125.397 165.993C124.825 164.976 125.035 163.796 124.964 162.698C124.337 161.775 124.73 160.531 124.615 159.48Z" fill="#FEFEFE"/>
<path d="M223.42 180.068C223.844 179.644 224.297 179.247 224.748 178.847C228.574 184.638 232.323 190.551 234.981 196.993C233.545 196.275 231.595 196.96 230.382 195.953C230.216 196.031 229.888 196.183 229.725 196.265L229.654 195.393L228.276 195.539L228.202 194.939C227.402 194.979 226.614 195.027 225.831 195.074C225.892 193.01 225.831 190.938 225.916 188.87L225.388 188.92C225.35 188.015 225.577 187.029 225.076 186.208C224.981 185.581 224.897 184.964 224.822 184.343C224.43 183.303 224.11 182.237 223.864 181.153C223.749 180.875 223.525 180.339 223.42 180.068Z" fill="#FEFEFE"/>
<path d="M183.023 376.651C187.151 375.859 191.324 375.326 195.518 375.054C196.195 375.732 195.962 377.01 195.518 377.766C191.455 378.719 187.269 378.878 183.169 379.563C183.169 381.33 183.098 383.123 183.507 384.866C183.488 384.653 183.516 384.438 183.59 384.237C183.664 384.036 183.781 383.854 183.934 383.704C184.087 383.554 184.271 383.44 184.473 383.37C184.675 383.3 184.89 383.276 185.102 383.3C188.451 382.791 191.821 382.242 195.217 382.283C196.392 382.435 196.47 384.046 195.914 384.853C195.061 385.571 193.883 385.531 192.836 385.792C189.281 386.378 185.725 387.073 182.119 387.243C178.892 387.073 175.716 387.921 172.479 387.704C172.36 384.232 172.336 380.76 172.309 377.292C175.899 377.444 179.444 376.858 183.023 376.651Z" fill="#FEFEFE"/>
<path d="M205.772 379.285C204.895 378.322 205.138 376.936 205.65 375.864C205.618 377.006 205.658 378.149 205.772 379.285Z" fill="#FEFEFE"/>
<path d="M168.253 2.48533C169.496 1.44674 170.958 0.705166 172.53 0.316852C174.102 -0.071462 175.741 -0.096324 177.324 0.244152C178.939 0.413682 180.328 1.71906 182.001 1.22742C190.236 0.457757 198.515 2.58366 206.005 5.89627C213.038 9.13768 219.55 13.6946 224.457 19.7774C225.516 21.0454 226.329 22.4898 227.423 23.7477C230.288 29.2235 232.441 35.1944 232.79 41.4161C232.868 45.9493 232.004 50.6385 233.427 55.0429C234.276 56.7958 235.252 59.0709 237.432 59.3659C242.688 60.5458 247.899 62.8548 251.526 66.9676C253.584 69.2258 254.949 72.3485 254.397 75.4441C253.984 77.8718 252.457 80.3639 249.995 81.1098C248.39 81.5743 246.758 80.9233 245.254 80.3774C240.788 78.6821 236.417 76.763 232.048 74.8677C231.855 76.3189 231.71 77.7802 231.635 79.2416C233.491 80.669 234.994 82.8797 234.652 85.3446C234.06 89.4133 230.88 92.8345 231.188 97.1066C231.568 102.45 232.929 107.706 232.841 113.08C232.793 115.565 231.954 117.945 230.846 120.139C228.137 125.54 225.499 131.019 223.546 136.753C222.191 140.822 221.876 145.107 220.935 149.264C220.225 152.577 219.291 155.837 218.138 159.022C221.812 162.308 224.829 166.237 227.938 170.042C237.527 169.859 247.012 172.235 255.894 175.721C268.423 180.783 280.349 188.571 288.042 199.93C291.428 204.954 293.982 210.493 295.604 216.333C296.809 220.548 297.259 224.952 298.793 229.072C299.861 231.862 301.452 234.421 303.48 236.613C305.109 238.494 306.839 240.58 307.001 243.184C307.191 244.831 306.483 246.377 305.904 247.879C309.078 251.251 311.639 255.152 313.469 259.408C314.438 262.178 315.162 265.09 315.064 268.053C315.023 269.467 314.705 270.864 314.688 272.285C314.932 273.672 315.552 274.953 315.941 276.306C316.618 278.473 316.869 280.741 317.438 282.935L318.291 282.765C318.017 283.321 317.468 283.803 317.539 284.461C319.75 302.817 317.878 321.445 314.153 339.48C313.72 342.09 312.507 344.769 310.049 346.037C307.167 347.465 303.879 347.634 300.761 348.2C286.279 350.097 271.638 350.466 257.079 349.302C253.49 348.916 249.894 348.577 246.352 347.841C242.061 347.268 237.978 345.807 233.823 344.701C233.345 347.342 232.915 349.991 232.58 352.649L233.735 353.025L232.6 353.398C232.099 357.249 231.34 361.062 230.328 364.811C236.18 367.337 237.724 375.959 233.42 380.543C230.426 383.693 225.943 384.436 221.971 385.68C209.534 388.908 196.741 390.688 183.937 391.613C161.961 393.024 139.917 390.21 118.452 385.629C114.517 384.673 110.18 384.015 107.139 381.089C103.634 377.787 103.573 371.809 106.594 368.178C107.312 367.123 108.625 366.635 109.279 365.574C96.3753 367.074 83.3491 367.199 70.4191 365.947C68.3874 365.53 67.314 363.485 66.4132 361.8C59.204 347.505 53.4746 332.326 50.8368 316.481C50.7792 314.786 49.1776 313.908 48.2938 312.66C47.4879 310.182 46.384 307.791 45.9234 305.201C45.1309 300.299 45.7414 295.272 47.6843 290.703C47.1552 289.688 46.7134 288.629 46.3636 287.539C45.8354 284.901 45.3884 282.236 44.718 279.629C44.0475 277.022 42.8454 274.716 41.7957 272.305C35.1825 255.396 36.8925 235.897 44.5317 219.622C48.1489 212.066 52.9502 205.139 58.7537 199.102C59.8677 197.909 61.0597 196.787 62.1399 195.549L62.2753 195.417C71.5456 186.823 82.0315 179.646 93.3943 174.117C94.7251 173.476 96.1473 172.958 97.6474 173.025C98.9748 173.073 100.041 172.154 101.162 171.574C106.761 168.472 111.886 164.583 116.383 160.026C117.179 156.781 118.269 153.536 120.301 150.831C122.902 147.101 126.63 144.263 130.754 142.408C131.465 137.472 131.77 132.487 132.447 127.544C130.971 125.51 129.694 123.353 128.211 121.329C128.062 121.095 127.767 120.62 127.615 120.386C125.482 116.179 121.997 112.927 119.471 108.964C116.8 104.895 113.715 100.67 113.41 95.6181C113.166 91.2544 115.354 87.223 118.053 83.9579C116.4 72.4299 116.045 60.5628 118.814 49.1941C119.838 44.76 121.313 40.4426 123.216 36.3099C125.551 31.3838 128.539 26.7957 132.098 22.6695C133.375 21.3133 134.53 19.8486 135.745 18.4347C144.702 10.1176 155.988 3.90599 168.253 2.48533ZM171.666 6.63542C158.395 7.15079 145.978 14.0405 136.958 23.5545C137.435 23.7071 137.912 23.863 138.393 24.0326L136.572 23.9817C125.844 35.8488 120.917 52.1236 121.11 67.9441C131.797 64.3908 142.545 61.0103 153.245 57.4977V57.3214C159.391 55.7007 164.795 52.2016 170.762 50.113C181.046 46.2002 192.193 44.7728 203.151 45.4272C211.955 46.007 220.86 47.6446 228.815 51.6116C228.476 47.882 228.388 44.1184 228.31 40.365C227.552 34.5187 225.409 28.9386 222.059 24.0902C217.86 18.3259 212.276 13.7149 205.826 10.6838C204.83 13.1928 203.032 15.2509 201.217 17.2005C199.832 18.6517 198.647 20.2995 197.1 21.5913C201.762 22.6967 206.52 23.646 210.895 25.66C211.003 26.3856 210.939 27.1994 210.272 27.6503C206.039 31.5732 201.048 34.5502 196.107 37.483C191.39 40.1955 186.416 42.6062 181.056 43.7116C185.065 39.5004 189.25 35.4249 192.782 30.7832C188.102 29.766 183.592 28.0504 179.187 26.1754C178.371 25.7618 176.972 25.1582 177.514 23.9953C179.793 21.8999 182.654 20.6047 185.275 18.9975C191.299 15.7765 197.228 12.2672 203.709 10.0396C202.656 9.16141 201.339 8.68333 200.096 8.19848C195.495 6.54188 190.66 5.62636 185.773 5.48601C181.039 5.51991 176.39 6.53709 171.666 6.63542ZM201.745 12.6402C199.869 13.5827 197.861 14.2473 196.097 15.4035C190.341 18.099 184.835 21.2896 179.342 24.4733C181.672 24.9853 183.846 26.0533 186.115 26.7586C189.213 27.8673 192.393 28.7251 195.505 29.8101C195.427 30.0542 195.281 30.5391 195.207 30.7832C193.581 32.7972 192.064 34.9299 190.161 36.6964C190.022 36.792 189.905 36.9157 189.816 37.0597C189.728 37.2036 189.671 37.3645 189.648 37.532C189.626 37.6994 189.639 37.8698 189.686 38.0319C189.734 38.194 189.815 38.3443 189.924 38.4731C190.601 37.5237 191.865 37.1474 192.894 36.693L193.839 36.2285C198.427 33.6187 202.873 30.7642 207.157 27.6774C207.157 27.0909 207.157 26.5077 207.184 25.9279C206.012 25.799 204.61 25.7007 203.665 25.0023C202.65 24.9582 201.715 24.4903 200.716 24.3513C198.383 23.3341 195.742 23.3951 193.365 22.6322L193.497 21.8829C196.311 19.6994 198.711 17.0106 201.075 14.3626C201.779 13.7218 202.616 13.1216 202.602 12.0638C202.399 12.2062 201.962 12.4944 201.745 12.6402ZM181.134 53.707C173.369 55.4566 165.639 57.3926 158.108 59.9389C159.245 61.0476 160.685 61.7461 161.927 62.7192C166.052 65.7707 170.244 68.8019 175.045 70.7041C178.117 72.1756 181.682 71.7212 184.791 70.6193C197.506 66.4116 210.011 61.2273 223.305 59.1116C225.598 58.6878 227.951 58.8166 230.24 58.3521C229.861 57.4502 229.593 56.4636 228.964 55.6973C227.975 54.9412 226.708 54.7717 225.554 54.4021C220.555 52.7814 215.388 51.7349 210.153 51.2827C200.418 50.2384 190.649 51.7812 181.134 53.707ZM135.146 67.6186C130.575 68.7884 126.223 70.6702 121.659 71.8365C121.53 74.7456 122.062 77.6005 122.184 80.4859C124.764 80.3537 127.476 79.9536 129.952 80.9301C132.068 81.6618 133.999 82.8478 135.609 84.4051C137.219 85.9625 138.47 87.8535 139.274 89.9457C140.408 89.1048 140.628 87.5519 141.048 86.2838C142 82.8458 140.75 79.4077 140.273 76.0171C144.424 74.2031 148.528 72.1891 152.233 69.5546C154.098 68.2866 155.487 66.4251 157.468 65.313C155.957 64.332 154.529 63.2286 153.198 62.014C147.075 63.5329 141.163 65.7911 135.146 67.6186ZM199.842 73.0436C195.217 75.0779 190.7 77.3801 185.935 79.0619C187.1 79.74 188.306 80.296 189.518 80.9097C193.344 83.1848 197.821 84.1003 202.196 84.5343C200.784 86.7212 198.908 88.7454 196.263 89.3388C194.062 89.6982 191.861 89.2404 189.829 88.403C186.416 87.3858 183.142 85.938 179.671 85.0734C177.51 84.5614 175.34 83.6392 173.075 83.8935C169.77 84.4631 166.824 86.1855 164.006 87.9351C161.839 89.2913 159.486 90.2712 157.176 91.3494C158.578 86.5483 161.023 81.6285 165.527 79.0686C167.221 78.2421 169.013 77.6337 170.86 77.2581C166.797 73.837 162.892 70.226 159.008 66.5879C157.806 67.605 156.604 68.5985 155.422 69.6394C151.586 72.5553 147.475 75.1762 143.009 77.0275C143.848 79.7807 144.231 82.7203 143.686 85.5718C143.009 89.1082 140.784 92.0953 140.015 95.6012C139.436 97.9576 139.568 100.409 139.091 102.782C137.706 97.3914 136.382 91.3392 131.909 87.5858C128.99 85.1446 124.75 84.0121 121.131 85.4735C119.2 86.4635 117.988 88.4369 117.206 90.4C115.956 93.9093 116.867 97.8085 118.466 101.05C120.941 105.853 124.269 110.165 128.286 113.775C129.772 114.992 131.333 116.308 133.311 116.606C133.785 114.948 133.846 113.195 134.421 111.567C134.723 119.556 135.81 127.578 138.437 135.152C139.098 137.088 140.093 138.947 141.627 140.333C145.074 143.554 149.043 146.138 153.005 148.681C161.531 153.926 170.576 158.432 180.142 161.436C182.512 162.114 184.926 162.728 187.391 162.813C190.459 162.979 193.537 162.891 196.605 163.111C200.797 163.335 205.176 162.806 208.833 160.612C211.084 159.256 212.48 156.923 213.81 154.726C216.16 150.888 217.257 146.457 218.311 142.124C220.247 134.095 223.861 126.615 227.711 119.356C228.679 117.565 229.549 115.626 229.488 113.544C229.39 108.658 228.296 103.871 227.819 99.0189C227.65 97.1303 227.504 95.1807 228.015 93.3261C228.777 90.5594 229.946 87.8774 230.233 85.0022C229.79 84.2698 228.804 84.2223 228.059 84.0223C223.095 83.2425 218.277 85.1954 213.797 87.1044C211.77 87.8071 209.847 88.7787 208.078 89.9931C208.88 87.6435 210.36 85.6362 211.704 83.5883C212.957 81.7913 214.234 79.8587 216.259 78.8415C219.245 77.4174 222.669 77.6276 225.821 78.2685C226.983 78.5804 228.144 78.9262 229.302 79.2856C229.549 74.9898 230.193 70.7244 230.244 66.4014C230.359 65.6182 230.399 64.8214 230.46 64.028C229.563 64.0822 228.669 64.1331 227.782 64.1704C218.033 65.5334 208.799 69.1274 199.822 73.0402L199.842 73.0436ZM129.562 119.722C130.615 121.048 131.594 122.434 132.843 123.584C132.95 122.411 132.923 121.231 132.762 120.064C131.699 119.922 130.632 119.81 129.562 119.722ZM136.548 136.163C136.28 139.428 135.948 142.683 135.634 145.941C135.342 148.942 135.075 151.949 134.57 154.926C134.12 157.3 134.645 159.721 135.204 162.047C136.324 166.675 138.61 170.94 141.844 174.432C145.23 178.162 149.561 180.803 153.414 183.987C156.658 186.506 159.889 189.056 162.926 191.823C169.228 197.539 175.381 203.463 180.795 210.037C186.392 216.957 191.197 224.617 194.282 232.995C196.582 223.986 200.49 215.469 205.819 207.854C209.446 202.456 214.413 197.651 215.906 191.104C216.949 186.018 214.803 181.01 212.476 176.613C211.738 175.402 211.057 174.093 209.95 173.178C209.767 172.822 209.402 172.107 209.215 171.751C207.454 172.883 205.965 174.544 203.892 175.114C204.112 172.639 205.822 170.737 206.889 168.604C205.873 169.336 204.834 170.079 203.747 170.73C198.613 173.517 192.45 173.514 186.938 171.947C179.085 169.753 171.822 165.875 164.826 161.755C157.193 157.09 149.9 151.817 143.354 145.694C141.681 144.066 139.92 142.483 138.613 140.513C137.743 139.16 137.242 137.614 136.548 136.163ZM121.232 162.02C120.237 168.462 122.265 174.86 124.618 180.766C128.269 189.175 133.023 197.041 137.486 205.019C139.616 203.283 141.549 201.327 143.693 199.594C145.674 197.95 147.529 195.993 150.042 195.186C151.946 194.664 153.969 194.783 155.798 195.525C160.302 197.316 163.834 200.743 167.677 203.578L167.105 202.646C161.528 197.244 155.707 192.087 149.649 187.232C145.247 183.872 140.53 180.753 137.09 176.331C133.571 172.262 131.296 167.177 130.121 161.935C129.078 157.463 129.731 152.875 129.87 148.355C125.448 151.621 121.747 156.401 121.232 162.02ZM215.27 163.444C214.647 165.108 213.306 166.454 212.686 168.038C217.495 174.141 221.324 181.631 221.081 189.602C220.742 196.722 216.231 202.551 212.019 207.911C211.274 208.854 210.387 209.739 210.174 210.997C211.528 210.081 212.527 208.8 213.611 207.606C216.049 204.894 218.622 202.3 221.125 199.648C222.384 198.323 223.447 196.671 225.188 195.919C226.712 195.627 228.235 195.98 229.739 196.258C229.902 196.176 230.23 196.024 230.396 195.946C231.595 196.963 233.559 196.285 234.994 196.987L235.086 197.163C236.102 197.282 237.117 197.431 238.133 197.573C236.941 194.379 235.008 191.518 233.504 188.466C229.187 181.18 224.561 174.032 219.123 167.553C217.897 166.136 216.838 164.501 215.27 163.444ZM104.389 175.348C103.888 175.619 103.275 175.836 103.18 176.494C106.939 177.559 110.335 179.576 113.783 181.363C116.339 182.678 118.686 184.353 121.063 185.95C120.946 185.424 120.8 184.904 120.626 184.394C118.313 178.993 116.519 173.293 115.906 167.441C112.211 170.269 108.497 173.12 104.389 175.348ZM230.166 173.483C230.583 174.341 231.097 175.148 231.696 175.89H231.94C237.534 184.444 242.381 193.464 246.426 202.852C246.389 204.026 245.149 203.558 244.394 203.581C238.756 202.903 233.135 202.106 227.521 201.269C226.366 201.021 225.648 202.096 225.09 202.907C217.759 210.864 209.71 218.395 204.305 227.892C200.73 234.036 198.999 241.383 200.069 248.459C197.394 250.768 193.341 250.012 190.31 248.849C190.07 241.641 188.069 234.446 184.076 228.404C178.855 220.504 171.788 214.075 164.748 207.83C161.619 205.294 158.622 202.51 155.033 200.625C153.607 199.865 151.383 199.245 150.336 200.896C147.231 203.168 144.519 205.911 141.498 208.281C141.258 209.474 142.277 210.597 142.548 211.76C146.32 222.487 146.527 234.297 144.15 245.353C153.36 244.896 162.574 244.557 171.822 244.384C172.228 250.405 172.783 256.414 173.22 262.435C173.396 266.901 174.036 271.342 173.979 275.821C186.275 276.346 198.532 277.576 210.688 279.504C221.629 274.394 233.322 271.003 245.16 268.704C245.854 266.596 246.44 264.456 247.34 262.425C248.054 261.293 248.594 260.061 248.945 258.77C244.733 261.655 240.331 264.29 236.288 267.43C235.397 267.701 234.473 267.311 233.606 267.145C227.849 265.558 222.093 263.988 216.255 262.703C216.058 262.704 215.868 262.629 215.725 262.493C215.581 262.357 215.496 262.171 215.487 261.974C214.85 258.855 214.362 255.705 213.98 252.548C213.827 251.392 213.743 250.209 213.269 249.137C213.147 246.849 212.513 244.608 212.591 242.302C225.635 238.721 238.878 235.806 251.675 231.381C253.544 230.791 255.399 230.079 257.323 229.719C257.252 231.442 256.835 233.11 256.734 234.843C257.862 232.139 259.131 229.496 260.536 226.926C264.549 219.382 267.437 210.973 267.156 202.33C267.095 198.848 266.818 195.298 265.693 191.989C265.121 189.836 264.491 187.632 263.418 185.676C260.902 183.516 257.719 182.346 254.78 180.885C246.89 177.535 238.706 174.605 230.166 173.483ZM98.2874 178.291L98.3652 178.494L97.8505 178.864C97.6271 178.82 97.1733 178.718 96.9532 178.674C93.7777 180.208 90.6883 181.915 87.6988 183.787C91.2036 184.153 94.6704 184.821 98.0605 185.784C106.374 188.039 114.037 192.904 119.302 199.75C124.263 206.212 127.09 214.16 128.028 222.213C129.01 230.482 128.184 238.891 126.125 246.944C126.447 253.674 126.579 260.533 125.109 267.169C124.776 268.212 124.536 269.283 124.391 270.369L124.805 270.746L124.916 270.847C125.133 271.064 125.57 271.492 125.783 271.709C125.814 271.732 125.858 271.783 125.888 271.81C126.613 272.563 127.331 273.329 128.059 274.089C135.728 263.005 141.146 250.117 142.447 236.619C143.175 227.861 142.413 218.717 138.657 210.671C137.711 211.43 136.822 212.257 135.996 213.146C135.542 212.642 135.168 212.07 134.889 211.451C132.369 205.86 129.152 200.628 126.23 195.247C125.753 194.471 125.502 193.491 124.808 192.874L125.004 192.498L124.774 192.05L124.354 192.003C124.286 191.24 123.677 190.646 123.274 190.022C123.034 189.134 122.749 188.205 121.98 187.649C121.347 186.537 120.071 186.116 119.126 185.337C115.835 182.736 112.133 180.712 108.334 178.956L108.202 179.057C106.79 177.908 104.958 177.47 103.262 176.948C101.497 176.324 99.8315 177.569 98.2874 178.291ZM264.244 186.127C265.114 188.5 266.228 190.768 266.865 193.247L267.16 193.359C268.277 197.967 268.619 202.754 268.534 207.484C268.196 214.703 267.014 221.955 264.234 228.665C261.864 234.883 258.975 241.583 260.509 248.354C268.132 242.746 277.823 240.464 287.192 241.003L287.274 241.217C292.038 241.451 296.64 242.78 301.157 244.191C301.181 242.241 299.515 240.986 297.916 240.257C292.912 237.721 287.314 235.551 281.619 236.165L281.995 236.341C277.796 236.606 273.963 238.443 270.092 239.895C273.732 236.335 278.737 234.415 283.715 233.69C287.575 233.459 291.347 234.276 295.045 235.277C291.659 230.045 291.344 223.623 289.519 217.805C287.231 209.718 283 202.316 277.196 196.244C273.39 192.294 269.144 188.639 264.244 186.127ZM81.8542 187.425C76.7546 191.229 71.5907 194.99 67.0701 199.499C63.9853 202.551 60.782 205.568 58.3033 209.169C60.335 208.42 62.2211 207.321 64.2562 206.575C68.77 204.775 73.5818 203.934 78.3834 203.33C90.6346 202.242 103.817 205.104 113.2 213.438C119.478 218.825 123.328 226.617 124.75 234.704C126.105 223.443 123.735 211.424 116.908 202.205C111.202 194.746 102.632 189.765 93.4688 187.964C90.3535 187.256 87.1468 187.11 83.9875 186.784C83.6068 186.728 83.2181 186.756 82.8494 186.866C82.4807 186.977 82.1409 187.168 81.8542 187.425ZM69.6301 205.904C67.6153 205.904 65.7021 206.772 63.7957 207.359C61.0055 208.488 57.8293 209.393 55.889 211.841C52.0281 217.566 48.9658 223.792 46.7869 230.347C43.184 241.776 42.6558 254.233 45.7914 265.833C47.0307 270.044 49.2182 273.919 50.3255 278.185C50.8537 280.063 51.0975 282.009 51.6427 283.884C53.1902 282.667 54.1282 280.877 55.5842 279.565C57.003 278.069 58.7909 276.967 60.1319 275.394C66.7959 269.908 74.943 266.65 83.2459 264.615C92.602 262.079 102.672 261.11 112.113 263.761C110.715 262.615 109.259 261.499 107.576 260.801C104.528 259.377 101.142 259.106 97.9217 258.394C99.5098 257.126 101.707 256.959 103.678 256.698C108.263 256.607 113.082 258.275 116.143 261.805C117.338 263.5 118.581 265.158 119.444 267.057C120.067 266.436 120.162 265.521 120.369 264.707C121.087 261.164 121.649 257.566 121.601 253.942C121.622 247.649 121.811 241.237 120.21 235.104C119.363 230.242 117.995 225.386 115.33 221.202C112.36 216.409 108.178 212.486 103.207 209.83C95.101 205.422 85.5993 203.917 76.4804 204.768C74.1642 204.887 71.7973 205.07 69.6301 205.904ZM249.132 235.585C240.246 238.474 231.185 240.702 222.083 242.865C221.406 242.682 220.881 242.068 220.779 243.18C219.425 243.462 218.094 243.784 216.753 244.082C217.66 248.829 218.385 253.64 219.34 258.4C224.578 259.611 229.739 261.171 234.994 262.286C240.69 258.329 246.318 254.281 252.003 250.311C252.467 244.947 253.019 239.586 253.696 234.246C252.149 234.643 250.635 235.087 249.132 235.585ZM258.244 253.742C257.668 254.074 257.173 254.53 256.795 255.078C254.963 257.79 253.767 260.862 252.565 263.893C252.225 264.745 251.997 265.637 251.888 266.548C262.08 258.39 275.794 256.017 288.523 257.299C295.993 258.441 303.917 260.32 309.572 265.673C309.375 260.852 307.232 256.322 304.645 252.335C303.707 250.978 302.711 249.436 301.049 248.944C295.61 247.269 289.952 246.133 284.253 246.174C275.073 245.957 266.069 249.056 258.244 253.742ZM143.425 248.259L144.082 248.808C146.933 249.561 150.001 248.029 152.832 249.114C149.622 249.141 146.416 249.231 143.215 249.385C143.046 249.992 142.877 250.609 142.707 251.223C141.631 254.793 140.292 258.279 138.701 261.652C147.231 260.133 155.683 258.207 164.203 256.631C165.699 256.363 167.193 256.013 168.72 255.973C169.082 253.525 168.513 251.002 168.412 248.537C164.555 248.517 160.712 248.931 156.858 248.941C159.432 248.222 162.202 248.68 164.826 248.086C163.607 247.49 162.208 247.727 160.905 247.662C155.074 247.696 149.216 247.483 143.425 248.259ZM273.929 263.544C265.636 264.639 257.573 267.982 251.292 273.587C251.069 275.93 251.146 278.29 251.089 280.646C252.67 279.995 254.411 279.934 256.067 279.561C261.014 278.778 266.208 278.012 271.111 279.459C276.089 280.816 280.23 284.189 283.454 288.116C270.366 284.657 256.571 286.522 243.676 289.896C240.196 290.825 236.704 291.822 233.112 292.14C230.528 292.391 228.168 291.086 225.72 290.496C205.853 285.047 185.221 282.653 164.65 282.582C153.814 282.677 142.948 283.498 132.386 286.003C131.601 288.895 130.981 291.835 130.189 294.724C129.803 295.999 129.413 297.267 128.949 298.515C130.744 299.271 132.593 299.911 134.367 300.756C136.551 301.729 138.593 303.092 140.97 303.584C152.388 305.815 164.084 305.425 175.635 306.316C175.343 306.596 174.964 306.766 174.561 306.798C171.91 307.181 169.275 307.723 166.59 307.852C166.641 307.937 166.736 308.113 166.783 308.191C169.953 309.426 173.176 310.544 176.335 311.833C190.006 317.441 202.853 324.802 216.292 330.925C228.33 336.299 241.188 340.08 254.323 341.317C258.186 341.975 262.111 342.111 266.032 342.257C275.509 342.571 284.997 342.159 294.412 341.026C298.106 340.507 301.899 340.009 305.298 338.391C305.723 338.228 306.1 337.963 306.399 337.619C306.698 337.276 306.908 336.865 307.012 336.421C310.337 320.723 312.148 304.55 310.655 288.522C310.08 283.854 309.595 279.029 307.479 274.757C307.279 273.475 306.636 272.275 306.036 271.136C305.129 269.369 303.233 268.542 301.634 267.565C293.281 262.886 283.251 262.188 273.929 263.544ZM134.973 268.806C133.556 271.491 131.931 274.06 130.111 276.489C130.546 277.425 130.95 278.377 131.323 279.344C142.118 276.659 153.248 275.662 164.345 275.364C164.237 272.312 164.596 269.261 164.514 266.209C164.579 265.151 163.617 264.554 162.875 264.025C153.59 265.704 144.214 266.979 134.973 268.806ZM76.5887 271.919C68.6434 275.078 61.5222 280.009 55.7671 286.339C54.0029 288.339 51.9576 290.303 51.1923 292.94C50.1407 297.183 50.49 301.652 52.1879 305.679C53.478 305.194 53.9724 303.753 54.8968 302.838C66.6164 289.655 82.8565 280.182 100.411 277.747C109.381 276.391 119.035 277.893 126.555 283.172C126.555 279.483 124.124 276.472 121.967 273.716C120.761 272.427 119.864 270.695 118.144 270.034C113.173 268.233 108.057 266.531 102.713 266.416C93.7397 266.192 84.8408 268.467 76.5887 271.919ZM218.974 281.514C224.731 282.47 230.325 284.145 235.98 285.515C238.841 284.657 241.594 283.433 244.445 282.464C244.465 279.727 244.445 276.981 244.533 274.248C235.851 276.028 227.155 278.076 218.974 281.514ZM100.411 283.108C84.2381 285.864 69.2576 294.548 58.4218 306.822C57.9139 307.466 56.9251 307.964 57.0335 308.914C57.1813 310.619 57.4575 312.312 57.8597 313.976C60.694 328.603 65.9426 342.704 72.7217 355.948C73.2228 356.782 73.5648 357.948 74.6349 358.22C76.609 358.732 78.6543 358.925 80.6826 359.166C96.1676 360.183 111.88 359.342 126.999 355.704C144.268 351.808 161.409 345.956 176.247 336.079C181.665 332.57 186.745 328.528 191.956 324.71C188.607 322.337 184.845 320.642 181.225 318.689C174.202 315.129 167.071 311.694 159.526 309.375C158.809 309.25 158.071 309.309 157.383 309.548C155.104 309.649 152.774 309.971 150.529 309.392C146.371 308.374 142.152 307.645 138.041 306.449C128.441 303.879 118.418 301.807 108.453 303.16C102.584 303.953 96.9871 306.086 91.664 308.585C94.6574 303.048 99.5436 298.186 105.764 296.545C111.727 295.066 118.032 295.738 123.934 297.199C124.784 294.083 125.492 290.933 126.115 287.766C122.996 285.695 119.586 283.915 115.855 283.318C110.786 282.169 105.51 282.257 100.411 283.091V283.108ZM183.443 338.442C177.386 343.36 170.713 347.464 163.593 350.648C159.577 352.54 155.375 354.002 151.312 355.758C151.461 360.739 151.312 365.723 151.278 370.704C157.762 371.094 164.247 371.541 170.742 371.528C182.085 371.701 193.402 370.639 204.63 369.154C206.026 368.981 207.414 368.761 208.806 368.554C211.176 358.721 212.845 348.723 214.765 338.791C214.874 338.154 215.263 337.13 214.264 337.076C208.169 334.024 202.412 330.345 196.554 326.884C192.247 330.803 187.97 334.746 183.443 338.442ZM220.014 339.734C218.392 348.814 216.871 357.931 214.691 366.893C218.297 365.977 221.873 364.936 225.418 363.797C226.939 356.979 228.368 350.116 229.275 343.186C226.136 342.172 223.095 340.89 220.014 339.734ZM132.874 361.135C132.874 363.699 132.898 366.272 132.921 368.842C138.001 369.422 143.056 370.117 148.159 370.449C148.159 365.842 148.213 361.237 148.19 356.629C143.097 358.175 138.045 359.878 132.874 361.135ZM116.789 364.353C115.667 364.468 114.555 364.672 113.464 364.963C115.357 366.048 117.568 366.32 119.661 366.825C123 367.466 126.332 368.232 129.738 368.473C129.838 366.303 129.814 364.13 129.667 361.963C125.397 362.888 121.134 363.851 116.789 364.353ZM222.533 371.558L222.12 371.219C214.86 372.623 207.722 374.657 200.415 375.79C202.135 377.885 202.937 380.672 203.005 383.361C210.296 382.005 217.613 380.628 224.677 378.356C226.434 377.678 228.425 377.054 229.536 375.413C229.915 373.579 229.756 371.538 228.28 370.222C226.234 369.948 224.203 370.276 222.533 371.558ZM111.781 371.107C110.322 372.311 110.264 374.179 110.467 375.922C111.006 376.417 111.483 376.997 112.161 377.326C116.271 379.214 120.799 379.74 125.15 380.797C135.925 382.639 146.72 384.639 157.623 385.354C159.841 385.894 162.137 385.694 164.396 385.768C164.057 382.978 164.944 380.343 165.964 377.787C163.14 377.97 160.366 377.383 157.556 377.278C149.571 376.712 141.576 376.108 133.663 374.871C128.722 374.23 123.816 373.348 118.882 372.694C116.464 372.426 114.27 371.026 111.781 371.107ZM183.88 375.227C179.546 375.339 175.204 375.4 170.874 375.627C170.83 379.773 170.874 383.974 171.486 388.084C173.586 388.355 175.685 387.904 177.785 387.806C179.221 387.626 180.738 387.806 182.102 387.246C185.705 387.077 189.264 386.382 192.819 385.795C193.835 385.548 195.044 385.575 195.897 384.856C196.453 384.049 196.375 382.439 195.2 382.286C191.814 382.259 188.428 382.808 185.085 383.303C184.873 383.28 184.658 383.304 184.456 383.374C184.254 383.444 184.07 383.558 183.917 383.708C183.764 383.858 183.647 384.04 183.573 384.241C183.499 384.441 183.471 384.656 183.49 384.87C183.094 383.127 183.152 381.333 183.152 379.567C187.253 378.889 191.448 378.722 195.501 377.77C195.945 376.997 196.179 375.715 195.501 375.057C191.631 374.816 187.764 375.278 183.883 375.227H183.88Z" fill="#070809"/>
<path d="M164.335 93.6414C168.801 87.5925 177.47 84.3647 184.618 87.3043C187.754 88.1452 190.083 90.6644 191.837 93.265C191.45 93.1229 191.074 92.9541 190.71 92.7598C188.648 91.2273 186.707 89.4947 184.303 88.5114C184.459 90.5661 184.808 92.7835 183.832 94.6992C183.086 96.3868 181.719 97.7221 180.016 98.4289C178.873 98.8062 177.661 98.9295 176.465 98.7901C175.269 98.6507 174.118 98.2521 173.092 97.6219C171.936 96.7059 171.049 95.493 170.528 94.1125C170.006 92.732 169.868 91.2357 170.129 89.7829C168.417 90.8189 166.796 91.9985 165.283 93.3091C165.486 93.5803 165.693 93.8584 165.892 94.1364C165.354 94.0403 164.83 93.8738 164.335 93.6414ZM177.944 90.5898C176.159 91.3425 177.372 94.3398 179.2 93.4888C181.035 92.8208 179.708 89.7659 177.944 90.5966V90.5898Z" fill="#070809"/>
<path d="M208.027 90.5966C212.673 89.5964 217.132 87.7384 221.88 87.206C223.573 86.9924 225.55 87.7824 226.085 89.5252C226.972 91.6409 226.224 93.9703 224.846 95.6656L224.931 95.0315C225.246 92.6208 224.978 89.6066 222.56 88.3622C223.647 91.1595 223.37 94.6518 221.135 96.815C219.78 98.5103 217.258 98.3238 215.493 97.4592C213.279 96.1029 212.5 93.0989 213.296 90.7187C211.684 90.8034 210.587 91.9732 209.513 93.0107L208.89 93.109C209.273 92.275 209.71 91.3866 210.715 91.1086C209.659 91.0204 208.396 91.4239 208.088 92.5259C206.249 96.4929 208.481 100.704 209.821 104.451C210.878 107.651 213.15 110.313 214.054 113.558C214.599 115.426 213.011 116.864 211.46 117.518C209.341 118.535 207.18 119.569 204.864 120.044C206.896 117.46 210.658 116.938 212.51 114.124C212.127 112.09 210.817 110.374 210.048 108.462C208.525 104.786 207.224 100.972 206.632 97.0286C206.293 94.7874 207.021 92.5666 208.027 90.5966ZM217.945 92.1665C217.539 93.3972 219.025 94.0686 220.048 93.7363C220.197 93.1497 220.366 92.5021 220.027 91.9461C219.685 90.9831 218.053 91.1052 217.945 92.1665Z" fill="#070809"/>
<path d="M120.196 89.3659C123.108 87.7554 126.843 88.6166 129.318 90.6645C131.411 92.3835 133.355 94.7129 133.554 97.5271C133.758 99.2732 132.302 100.616 132.18 102.274C132.891 104.735 134.55 107.085 133.873 109.774C133.91 110.537 133.033 109.872 132.752 109.696C129.525 107.478 125.39 106.421 122.932 103.186C121.28 101.033 121.899 98.0729 123.088 95.8623C124.175 93.8279 125.729 91.6749 128.113 91.1426C125.766 89.6343 122.962 89.005 120.196 89.3659ZM124.046 101.572C124.825 104.471 127.564 106.051 129.826 107.702C130.632 107.604 131.445 107.492 132.258 107.363C132.227 105.363 130.517 103.81 130.605 101.772C130.605 100.033 132.031 98.7205 132.264 97.0625C132.186 94.8214 130.473 93.1871 128.983 91.7258C126.078 94.0924 123.447 97.6356 124.046 101.579V101.572Z" fill="#070809"/>
<path d="M186.999 113.656C187.779 112.728 188.816 112.051 189.979 111.71C191.142 111.369 192.38 111.38 193.537 111.74C192.02 112.157 190.395 112.605 189.244 113.737C188.339 114.755 188.702 116.175 188.854 117.379C187.794 116.392 187.029 115.148 186.999 113.656Z" fill="#070809"/>
<path d="M151.467 115.765C153.614 116.653 155.714 117.752 157.468 119.295C158.514 120.176 158.605 121.668 158.588 122.926C158.514 124.781 158.348 126.656 158.094 128.483C157.953 128.079 157.84 127.665 157.755 127.246C157.329 124.991 157.214 122.638 156.323 120.505C155.3 118.366 152.954 117.481 151.467 115.765Z" fill="#070809"/>
<path d="M193.27 116.952C194.963 114.677 198.396 116.477 199.328 118.613C197.364 117.86 195.4 117.013 193.27 116.952Z" fill="#070809"/>
<path d="M173.098 122.577C172.38 124.272 170.772 125.411 169.434 126.622C176.813 128.195 184.31 129.449 191.878 129.47C194.059 129.497 196.256 129.059 198.42 129.5C199.683 129.704 200.926 130.121 202.219 130.06C206.842 129.229 211.647 129.89 216.194 128.49C215.437 127.318 214.844 126.049 214.43 124.716C216.218 125.733 217.478 127.666 218.155 129.575C217.505 129.266 216.865 128.934 216.231 128.605C213.719 131.019 213.025 134.827 210.184 136.956C207.729 138.238 204.932 138.692 202.23 139.177C198.705 139.821 195.163 138.896 191.797 137.916C188.035 136.848 184.55 135.04 181.025 133.345C177.138 131.494 173.318 129.493 169.512 127.466C168.7 126.747 167.653 127.425 166.766 127.564C168.28 125.265 170.775 123.913 173.098 122.577ZM182.552 131.141C187.287 134.029 192.506 136.029 197.956 137.044C200.415 137.482 202.92 136.956 205.27 136.237C208.006 135.332 210.102 133.23 211.948 131.104C209.578 132.121 206.96 131.728 204.498 132.25C203.422 132.443 202.375 132.874 201.271 132.901C199.189 132.823 197.262 131.731 195.156 131.908C190.947 132.094 186.673 132.121 182.552 131.141Z" fill="#070809"/>
<path d="M199.348 143.141C202.663 143.415 205.914 142.527 208.948 141.272C206.655 143.554 203.604 145.45 200.289 145.487C197.177 145.087 194.32 143.554 191.699 141.91C194.269 142.185 196.747 143.086 199.348 143.141Z" fill="#070809"/>
<path d="M136.66 162.921C142.934 167.712 149.141 172.608 155.68 177.033C162.833 181.943 170.286 186.4 177.995 190.378C181.892 192.264 186.088 193.959 190.496 193.769C193.49 193.64 196.189 191.975 198.241 189.88C202.944 184.882 205.579 178.413 209.811 173.086C209.347 175.083 208.02 176.701 207.18 178.535C205.074 182.858 202.839 187.147 199.991 191.036C198.041 193.474 195.494 195.586 192.369 196.251C187.913 197.458 183.226 196.214 179.163 194.305C172.472 191.131 166.333 186.944 160.282 182.716C153.458 177.677 146.788 172.415 140.537 166.685C139.233 165.454 137.743 164.383 136.66 162.921Z" fill="#070809"/>
<path d="M269.99 205.565C271.111 206.69 271.467 208.321 272.151 209.715C273.278 212.661 274.707 215.574 275.06 218.741C274.63 220.948 273.39 222.935 272.33 224.898C272.168 223.301 272.899 221.755 272.73 220.151C272.405 215.191 270.989 210.393 269.99 205.565Z" fill="#070809"/>
<path d="M75.5965 223.023C80.9769 222.647 86.3038 224.294 90.5364 227.641C94.0157 230.089 96.3926 233.81 97.153 237.999C97.9115 242.98 96.7162 248.127 94.2849 252.494C90.8648 258.146 85.3081 262.571 78.8608 264.192C73.3143 265.86 67.0769 265.263 62.0721 262.286C57.7548 259.838 54.355 255.607 53.4238 250.67C52.347 244.872 54.1281 238.776 57.555 234.056C61.7335 228.177 68.3298 223.722 75.5965 223.023ZM68.4382 228.536L68.0758 228.333L67.639 228.563L67.5882 228.991C66.3489 229.33 65.4312 230.347 64.4391 231.12C59.8813 234.89 56.6746 240.498 56.4917 246.489C56.3744 248.399 56.6598 250.312 57.3296 252.103C57.9994 253.895 59.0384 255.525 60.379 256.888C64.0463 260.543 69.5387 261.974 74.601 261.425C84.0383 260.337 91.7825 252.067 92.9846 242.743C93.6618 238.243 92.2193 233.412 88.9212 230.218C83.676 224.871 74.513 224.498 68.4382 228.536Z" fill="#070809"/>
<path d="M71.3604 230.042C72.5151 229.455 73.7883 229.896 74.9261 230.282C74.9425 231.853 74.8178 233.423 74.5536 234.971L73.7816 235.134C73.9102 233.917 74.0017 232.7 74.0152 231.479C72.7522 231.479 71.4214 231.547 70.3751 232.354C66.9076 234.727 63.6535 237.887 62.3634 242C61.7471 243.899 61.3678 245.862 60.5653 247.7C66.1186 247.893 71.2182 244.821 76.7953 245.106C76.6835 248.666 75.6474 252.101 75.3189 255.617C76.5853 255.322 78.1565 255.278 78.8507 253.969C82.2369 248.971 84.6648 243.407 87.7123 238.21C83.6049 237.837 79.5855 238.952 75.4747 238.698C76.4073 238.246 77.3891 237.905 78.4003 237.681C81.9253 237.311 85.4673 236.324 89.0228 236.765C90.401 236.911 89.8287 238.44 89.3817 239.22C86.3341 244.774 83.5439 250.466 80.2119 255.854C78.2615 256.654 76.0774 256.739 73.9949 256.709C73.8561 253.488 74.6721 250.334 75.0107 247.15C70.497 247.747 66.017 248.781 61.466 248.927C61.1133 248.943 60.7622 248.871 60.4443 248.717C60.1264 248.564 59.8517 248.333 59.6451 248.046C59.4384 247.76 59.3063 247.426 59.2607 247.075C59.215 246.725 59.2572 246.368 59.3835 246.038C60.3994 242.577 61.1884 238.779 63.816 236.124C66.0306 233.771 68.384 231.408 71.3604 230.042Z" fill="#070809"/>
<path d="M75.417 235.192C75.9729 234.951 76.5601 234.792 77.1609 234.717C76.8223 236.314 75.8708 237.67 75.2003 239.125C73.4598 239.122 71.7252 239.327 70.033 239.735C70.0804 239.152 70.1244 238.576 70.1685 237.996C70.3649 237.606 70.7543 236.823 70.9473 236.433C71.0681 237.208 71.1247 237.991 71.1166 238.776C71.5229 238.721 71.9259 238.667 72.339 238.623C72.9322 237.519 73.4526 236.377 73.8967 235.205L75.0988 235.372L75.417 235.192Z" fill="#070809"/>
<path d="M171.666 6.63537C176.39 6.55061 181.039 5.53004 185.763 5.48596C190.65 5.62631 195.485 6.54184 200.086 8.19844C201.342 8.68668 202.646 9.16137 203.699 10.0395C197.218 12.2672 191.289 15.7764 185.265 18.9975C182.644 20.6012 179.783 21.8998 177.504 23.9952C176.962 25.1548 178.36 25.7617 179.176 26.1754C183.579 28.0504 188.092 29.7592 192.772 30.7832C189.24 35.4249 185.055 39.5004 181.046 43.7115C186.406 42.6062 191.38 40.1819 196.097 37.483C201.038 34.5501 206.029 31.5732 210.262 27.6503C210.939 27.1993 210.993 26.3856 210.885 25.66C206.51 23.6494 201.742 22.7 197.089 21.5913C198.637 20.2995 199.822 18.6516 201.207 17.2005C203.022 15.2509 204.82 13.1928 205.816 10.6837C212.266 13.7149 217.85 18.3259 222.049 24.0901C225.398 28.9386 227.542 34.5187 228.3 40.365C228.378 44.1184 228.459 47.8718 228.804 51.6116C220.85 47.6446 211.945 46.0069 203.14 45.4272C192.183 44.7728 181.035 46.2002 170.752 50.1129C164.785 52.2015 159.381 55.7006 153.235 57.3214C152.835 53.2153 152.48 49.1026 151.819 45.0237C151.904 42.5723 151.119 40.2395 150.431 37.9238C149.886 36.2285 149.368 34.445 148.183 33.0718L148.122 32.943C147.722 31.1586 146.655 29.5956 145.139 28.5759C144.712 28.1724 144.292 27.7588 143.882 27.3451C143.229 26.311 142.328 25.4667 141.085 25.2396C140.222 24.7683 139.322 24.368 138.393 24.0427C137.912 23.8732 137.435 23.7036 136.958 23.5646C145.982 14.0404 158.395 7.15074 171.666 6.63537Z" fill="#FBA102"/>
<path d="M117.199 42.3858C118.261 41.8413 119.389 41.4367 120.555 41.1821C120.358 43.9522 118.862 46.4342 118.808 49.2246C116.038 60.6068 116.393 72.4705 118.046 83.9884C115.337 87.2535 113.159 91.2849 113.403 95.6486C113.691 100.701 116.789 104.915 119.465 108.994C121.991 112.944 125.475 116.209 127.608 120.417L127.497 120.824C127.676 120.963 128.028 121.231 128.204 121.359C129.687 123.394 130.964 125.547 132.44 127.574C131.763 132.518 131.455 137.502 130.747 142.439C126.623 144.293 122.895 147.131 120.294 150.861C118.262 153.573 117.172 156.812 116.376 160.056C111.879 164.614 106.754 168.503 101.155 171.605C100.035 172.184 98.968 173.103 97.6406 173.056C96.1405 172.988 94.7183 173.507 93.3875 174.148C82.0247 179.676 71.5388 186.853 62.2685 195.447L62.1331 195.58C61.063 196.817 59.8711 197.953 58.7469 199.133C52.9434 205.169 48.1421 212.097 44.5249 219.653C36.8857 235.928 35.1757 255.427 41.7889 272.336C41.0202 271.41 40.1805 270.518 39.6454 269.43C32.0393 254.1 26.9469 237.644 24.5634 220.694C23.7846 215.537 23.1141 210.346 23.1141 205.127C22.5181 199.024 23.0057 192.898 23.236 186.791C25.7079 152.672 38.23 119.369 58.73 91.9969C74.1337 71.3448 94.014 53.7951 117.199 42.3858Z" fill="#C80003"/>
<path d="M232.79 41.4161C238.807 44.41 244.845 47.3971 250.527 51.0081C266.56 60.8985 280.691 73.7726 292.4 88.5183C315.331 117.532 328.294 154.445 327.85 191.491C328.053 206.792 325.636 222.033 321.643 236.775C319.416 244.491 316.685 252.053 313.469 259.411C311.639 255.156 309.078 251.254 305.904 247.883C306.483 246.381 307.191 244.831 307.001 243.187C306.839 240.583 305.109 238.498 303.48 236.616C301.452 234.425 299.861 231.865 298.793 229.075C297.259 224.956 296.809 220.551 295.604 216.337C293.982 210.497 291.428 204.958 288.042 199.933C280.349 188.575 268.436 180.786 255.894 175.724C247.012 172.239 237.527 169.862 227.937 170.045C224.829 166.241 221.812 162.311 218.138 159.026C219.291 155.84 220.225 152.58 220.935 149.268C221.876 145.111 222.191 140.815 223.546 136.756C225.499 131.016 228.12 125.537 230.846 120.142C231.953 117.949 232.793 115.568 232.841 113.083C232.929 107.709 231.567 102.454 231.188 97.11C230.88 92.8379 234.06 89.4303 234.652 85.348C234.991 82.8967 233.491 80.686 231.635 79.245C231.72 77.7836 231.855 76.3223 232.048 74.8711C236.423 76.7665 240.795 78.6923 245.254 80.3808C246.751 80.9267 248.383 81.5777 249.995 81.1132C252.457 80.3673 253.984 77.8752 254.397 75.4475C254.949 72.3519 253.584 69.2292 251.526 66.971C247.899 62.8582 242.688 60.5493 237.432 59.3693C235.252 59.0743 234.276 56.7993 233.426 55.0463C231.991 50.6386 232.868 45.9494 232.79 41.4161Z" fill="#C80003"/>
<path d="M135.203 162.04C135.63 162.264 136.057 162.491 136.487 162.718L136.66 162.915C137.743 164.376 139.233 165.447 140.547 166.678C146.798 172.408 153.469 177.67 160.292 182.709C166.343 186.937 172.482 191.124 179.173 194.298C183.237 196.207 187.913 197.451 192.379 196.244C195.505 195.566 198.051 193.467 200.002 191.029C204.536 186.133 206.378 179.501 210.079 174.036C211.028 174.74 211.843 175.608 212.486 176.599C214.813 181.007 216.96 186.018 215.917 191.09C214.423 197.638 209.456 202.442 205.829 207.84C200.5 215.455 196.592 223.973 194.292 232.981C191.208 224.606 186.403 216.944 180.805 210.023C175.387 203.449 169.238 197.526 162.936 191.809C159.889 189.042 156.669 186.493 153.425 183.974C149.571 180.79 145.244 178.145 141.854 174.419C138.618 170.929 136.328 166.667 135.203 162.04Z" fill="#FBA102"/>
<path d="M96.9532 178.674C97.1801 178.718 97.6304 178.82 97.8505 178.864L98.3652 178.494L98.7039 179.396C103.814 180.908 109.008 182.272 113.816 184.628C117.081 186.201 120.491 187.68 123.298 190.022C123.687 190.646 124.314 191.24 124.378 192.003C124.49 192.223 124.717 192.657 124.832 192.874C125.526 193.477 125.776 194.457 126.254 195.247C129.176 200.628 132.393 205.86 134.912 211.451C135.192 212.07 135.565 212.642 136.02 213.146C136.845 212.257 137.735 211.43 138.681 210.671C142.436 218.717 143.198 227.861 142.47 236.619C141.17 250.117 135.752 263.005 128.082 274.089C127.354 273.329 126.636 272.563 125.912 271.81C125.881 271.783 125.837 271.732 125.807 271.709C125.594 271.492 125.157 271.064 124.94 270.847L124.828 270.746L124.415 270.369C124.559 269.283 124.8 268.212 125.133 267.169C126.586 260.533 126.454 253.674 126.149 246.944C128.208 238.891 129.034 230.482 128.052 222.213C127.1 214.16 124.286 206.212 119.326 199.75C114.06 192.887 106.397 188.039 98.0842 185.784C94.6941 184.821 91.2273 184.153 87.7225 183.787C90.7043 181.916 93.7858 180.209 96.9532 178.674Z" fill="#FBA102"/>
<path d="M68.4381 228.536C74.5129 224.498 83.6759 224.871 88.9313 230.231C92.2159 233.425 93.672 238.257 92.9947 242.756C91.7926 252.08 84.0484 260.35 74.6111 261.438C69.5522 261.988 64.0598 260.557 60.3892 256.902C59.0485 255.539 58.0095 253.908 57.3397 252.117C56.67 250.325 56.3845 248.412 56.5018 246.503C56.6847 240.512 59.888 234.904 64.4492 231.133C65.4414 230.36 66.359 229.343 67.5983 229.004L68.4381 228.536ZM71.3604 230.042C68.3839 231.398 66.0306 233.771 63.8261 236.145C61.1985 238.799 60.3993 242.587 59.3936 246.059C59.2673 246.389 59.2251 246.745 59.2708 247.096C59.3164 247.446 59.4486 247.78 59.6552 248.067C59.8618 248.353 60.1365 248.584 60.4544 248.738C60.7723 248.892 61.1234 248.964 61.4761 248.948C66.0339 248.802 70.5139 247.768 75.0209 247.171C74.6822 250.355 73.8492 253.508 74.005 256.729C76.0875 256.759 78.2716 256.675 80.222 255.875C83.554 250.487 86.3476 244.794 89.3918 239.24C89.8388 238.46 90.4077 236.931 89.0329 236.785C85.4774 236.331 81.9219 237.331 78.4104 237.701L77.0119 237.613C77.1342 236.655 77.1874 235.69 77.1711 234.724C76.5702 234.798 75.983 234.958 75.4272 235.199L75.3155 234.799C75.1258 234.839 74.7534 234.934 74.5637 234.978C74.828 233.43 74.9526 231.86 74.9362 230.289C73.7883 229.896 72.5015 229.455 71.3604 230.042Z" fill="#FBA102"/>
<path d="M249.132 235.585C250.635 235.087 252.149 234.643 253.683 234.246C253.005 239.586 252.467 244.947 251.99 250.31C246.304 254.281 240.676 258.329 234.981 262.286C229.725 261.171 224.565 259.611 219.326 258.4C218.372 253.654 217.633 248.846 216.739 244.082C218.094 243.784 219.418 243.461 220.766 243.18C220.867 242.068 221.402 242.682 222.069 242.865C231.171 240.702 240.246 238.474 249.132 235.585Z" fill="#FBA102"/>
<path d="M153.868 249.483C158.653 249.517 163.397 248.724 168.192 248.944C168.215 251.297 168.473 253.637 168.72 255.973C167.193 256.014 165.699 256.363 164.203 256.631C155.683 258.207 147.231 260.133 138.701 261.652C140.292 258.279 141.631 254.793 142.707 251.223C143.093 250.589 143.5 249.646 144.438 249.866C147.587 249.958 150.722 249.507 153.868 249.483Z" fill="#FBA102"/>
<path d="M220.014 339.734C223.095 340.89 226.136 342.172 229.275 343.186C228.368 350.116 226.939 356.979 225.418 363.797C221.873 364.936 218.307 365.977 214.691 366.893C216.871 357.931 218.392 348.814 220.014 339.734Z" fill="#FBA102"/>
<path d="M132.874 361.135C138.044 359.878 143.097 358.176 148.186 356.629C148.21 361.237 148.139 365.842 148.156 370.449C143.056 370.11 137.997 369.432 132.918 368.842C132.897 366.279 132.884 363.699 132.874 361.135Z" fill="#FBA102"/>
<path d="M201.745 12.6402C201.962 12.4944 202.399 12.2062 202.616 12.0536C202.616 13.1115 201.793 13.7116 201.088 14.3524C198.718 17.0005 196.324 19.6892 193.51 21.8727L193.378 22.6221C195.748 23.3849 198.396 23.3375 200.73 24.3411C201.745 24.4801 202.656 24.948 203.679 24.9921C204.624 25.6905 206.026 25.7889 207.197 25.9177C207.197 26.4975 207.197 27.0807 207.17 27.6673C202.887 30.754 198.441 33.6085 193.852 36.2183L192.907 36.6829C191.892 37.1372 190.601 37.5135 189.938 38.4629C189.829 38.3341 189.748 38.1838 189.7 38.0217C189.652 37.8596 189.639 37.6893 189.662 37.5218C189.684 37.3543 189.741 37.1934 189.83 37.0495C189.918 36.9056 190.036 36.7818 190.175 36.6862C192.078 34.9197 193.595 32.7871 195.22 30.773C195.295 30.5289 195.44 30.0441 195.518 29.7999C192.406 28.7251 189.227 27.8673 186.128 26.7484C183.846 26.0432 181.672 24.9751 179.356 24.4632C184.848 21.2794 190.361 18.0888 196.111 15.3933C197.861 14.2473 199.869 13.5827 201.745 12.6402Z" fill="#C80003"/>
<path d="M141.085 25.2294C142.328 25.4565 143.229 26.3008 143.882 27.3349C142.934 26.6534 141.989 25.9617 141.085 25.2294Z" fill="#D08B5D"/>
<path d="M145.139 28.5759C146.657 29.5981 147.725 31.1651 148.122 32.9532C147.089 31.5122 146.134 30.0203 145.139 28.5759Z" fill="#D08B5D"/>
<path d="M148.183 33.0718C149.368 34.445 149.876 36.2216 150.431 37.9237C151.108 40.2395 151.904 42.5722 151.819 45.0236C151.759 44.7998 151.637 44.3455 151.576 44.1149C151.237 42.4291 150.811 40.762 150.299 39.1206L150.228 38.89C149.808 37.1976 149.201 35.5576 148.416 34.0008L148.355 33.7974L148.183 33.0718Z" fill="#D08B5D"/>
<path d="M199.822 73.0401C208.799 69.1274 218.033 65.5334 227.778 64.1771C227.037 65.6859 227.264 67.3846 227.328 69.0019H227.267C220.403 68.49 213.638 70.6328 207.316 73.1283C203.215 74.7524 199.111 76.3833 195.125 78.2786C193.263 79.1907 191.238 79.7705 189.501 80.9233C188.302 80.3096 187.083 79.7467 185.918 79.0754C190.679 77.3767 195.203 75.0643 199.822 73.0401Z" fill="#D08B5D"/>
<path d="M155.416 69.6259C156.597 68.6087 157.786 67.5915 159.002 66.5743C162.872 70.2124 166.773 73.8234 170.853 77.2445C169.006 77.6202 167.214 78.2286 165.52 79.0551C163.448 77.648 161.633 75.912 159.835 74.1794C158.314 72.7045 156.523 71.4704 155.416 69.6259Z" fill="#D08B5D"/>
<path d="M202.192 84.5207L202.616 84.5004C203.469 88.23 199.5 91.5087 195.985 91.1764C193.534 90.8781 191.048 90.4983 188.763 89.5184L188.509 88.3656C190.991 89.3998 193.619 90.0304 196.321 89.8168C196.321 89.6948 196.273 89.4506 196.26 89.3252C198.894 88.742 200.77 86.7178 202.192 84.5207Z" fill="#D08B5D"/>
<path d="M124.046 101.579C123.447 97.6356 126.078 94.0924 128.983 91.7461C130.473 93.2074 132.186 94.8417 132.264 97.0829C132.031 98.7477 130.608 100.053 130.605 101.792C130.517 103.827 132.227 105.383 132.258 107.384C131.445 107.509 130.632 107.621 129.826 107.723C127.564 106.058 124.825 104.478 124.046 101.579Z" fill="#D08B5D"/>
<path d="M193.537 111.74C196.873 112.398 200.218 113.056 203.581 113.534C206.561 113.724 209.534 114.005 212.517 114.121C210.665 116.935 206.913 117.457 204.871 120.041C207.187 119.566 209.347 118.542 211.467 117.515C212.696 118.016 213.16 119.332 212.256 120.403C210.37 122.234 207.488 122.319 205.013 122.329C199.72 122.329 194.855 118.857 189.504 119.956C187.039 120.295 185.102 121.963 182.786 122.719C182.654 120.685 183.267 118.698 183.998 116.847C184.605 115.49 185.454 114.022 186.999 113.656C187.029 115.148 187.794 116.369 188.854 117.386C188.702 116.182 188.339 114.755 189.244 113.744C190.395 112.605 192.034 112.157 193.537 111.74ZM193.27 116.952C195.4 117.013 197.364 117.86 199.328 118.613C198.396 116.477 194.973 114.677 193.27 116.952Z" fill="#D08B5D"/>
<path d="M146.554 113.229C148.247 113.907 150.055 114.585 151.467 115.765C152.954 117.481 155.3 118.366 156.316 120.512C157.207 122.645 157.332 124.998 157.749 127.252C155.571 125.235 154.024 122.634 152.114 120.386C150.475 117.83 148.315 115.687 146.554 113.229Z" fill="#D08B5D"/>
<path d="M127.591 120.417C127.744 120.651 128.038 121.126 128.187 121.359C128.011 121.231 127.659 120.963 127.48 120.824L127.591 120.417Z" fill="#D08B5D"/>
<path d="M136.548 136.163C137.242 137.614 137.743 139.16 138.63 140.506C139.92 142.476 141.678 144.06 143.371 145.687C149.916 151.81 157.21 157.083 164.843 161.748C171.839 165.868 179.102 169.747 186.955 171.94C192.467 173.507 198.63 173.51 203.764 170.723C203.764 171.367 204.102 172.13 203.611 172.69C201.993 174.826 199.632 176.213 197.685 178.02C195.738 179.827 193.307 181.532 190.496 181.295C183.125 180.82 176.403 177.352 170.003 173.941C158.633 167.447 148.479 159.018 139.998 149.034C138.527 147.492 137.238 145.786 136.158 143.948C135.979 144.605 135.796 145.267 135.65 145.938C135.948 142.683 136.28 139.428 136.548 136.163Z" fill="#D08B5D"/>
<path d="M124.371 192.002L124.791 192.05L125.021 192.497L124.825 192.874C124.713 192.657 124.483 192.223 124.371 192.002Z" fill="#D08B5D"/>
<path d="M67.639 228.563L68.0758 228.333L68.4381 228.536L67.5882 228.991L67.639 228.563Z" fill="#D08B5D"/>
<path d="M70.3751 232.351C71.4214 231.544 72.7454 231.476 74.0152 231.476C74.0152 232.696 73.9102 233.914 73.7816 235.131L74.5536 234.968L75.0988 235.385L73.8967 235.219C73.4526 236.391 72.9323 237.533 72.339 238.637C71.9259 238.681 71.523 238.735 71.1166 238.789C71.1247 238.005 71.0681 237.221 70.9473 236.446C70.7543 236.836 70.3649 237.62 70.1685 238.01C70.1245 238.589 70.0805 239.166 70.033 239.749C71.7282 239.338 73.4663 239.131 75.2105 239.132C75.8878 237.66 76.8223 236.304 77.1711 234.724C77.1874 235.69 77.1343 236.655 77.012 237.613L78.4105 237.701C77.3992 237.926 76.4174 238.267 75.4848 238.718C79.5855 238.972 83.6116 237.857 87.7225 238.23C84.6749 243.428 82.2402 248.992 78.8608 253.989C78.1667 255.288 76.5955 255.346 75.329 255.637C75.6677 252.104 76.6835 248.67 76.8054 245.126C71.2284 244.842 66.1288 247.913 60.5754 247.72C61.378 245.882 61.7572 243.919 62.3735 242.021C63.6535 237.887 66.9076 234.724 70.3751 232.351Z" fill="#C80003"/>
<path d="M152.832 249.114C154.176 249.136 155.521 249.078 156.858 248.941C160.712 248.941 164.555 248.517 168.412 248.537C168.513 251.002 169.089 253.525 168.72 255.973C168.473 253.637 168.215 251.297 168.192 248.944C163.397 248.724 158.653 249.517 153.868 249.483C150.716 249.507 147.587 249.958 144.438 249.86C143.5 249.646 143.083 250.589 142.707 251.216C142.877 250.602 143.046 249.985 143.215 249.378C146.414 249.233 149.62 249.145 152.832 249.114Z" fill="#D08B5D"/>
<path d="M273.929 263.544C283.251 262.188 293.264 262.866 301.614 267.575C303.216 268.552 305.112 269.379 306.016 271.146C306.615 272.285 307.259 273.485 307.459 274.767C306.511 276.889 306.944 279.266 307.046 281.511C307.689 286.868 308.21 292.249 308.16 297.65C308.281 308.93 306.534 320.147 304.167 331.142C303.903 332.034 303.879 333.234 302.853 333.614C296.477 336.737 289.414 338.096 282.442 339.124C275.605 340.26 268.677 340.48 261.786 340.768C259.3 341.036 256.744 340.633 254.313 341.328C241.177 340.1 228.32 336.31 216.282 330.935C202.846 324.812 189.999 317.451 176.325 311.843C173.166 310.555 169.942 309.436 166.773 308.201C166.726 308.113 166.631 307.937 166.58 307.862C169.265 307.734 171.9 307.184 174.551 306.808C174.954 306.776 175.333 306.606 175.624 306.327C164.074 305.435 152.378 305.825 140.96 303.594C138.59 303.102 136.558 301.739 134.357 300.766C132.596 299.922 130.747 299.281 128.939 298.525C129.403 297.277 129.792 296.009 130.178 294.734C136.717 296.09 143.192 298.579 149.974 297.982C160.145 297.267 170.354 297.249 180.528 297.928C181.882 298.084 183.457 298.087 184.371 299.284C182.241 301.62 179.969 303.855 177.287 305.57C176.631 305.983 176.034 306.482 175.513 307.055C178.919 309.578 183.05 310.761 186.836 312.572C200.872 318.536 214.914 324.49 229.218 329.779C237.473 332.858 246.297 335.262 255.183 334.302C266.079 333.139 276.854 330.071 286.485 324.809C289.339 323.269 291.95 321.187 293.833 318.519C297.703 313.138 300.131 306.808 301.445 300.332C303.168 292.303 303.202 283.718 300.388 275.92C298.865 271.658 295.705 267.599 291.191 266.345C285.902 264.724 280.308 265.605 274.938 266.345C268.192 267.548 261.393 269.718 255.931 274.007C254.072 275.313 254.621 277.866 253.679 279.653C252.928 279.765 252.169 279.775 251.417 279.812C251.285 277.751 251.333 275.682 251.268 273.621C257.573 267.996 265.636 264.653 273.929 263.544Z" fill="#D08B5D"/>
<path d="M134.973 268.806C144.214 266.979 153.597 265.704 162.875 264.029C163.617 264.558 164.569 265.154 164.514 266.212C164.596 269.264 164.237 272.315 164.345 275.367C153.248 275.665 142.118 276.662 131.323 279.348C130.95 278.382 130.546 277.431 130.111 276.493C131.931 274.062 133.557 271.492 134.973 268.806Z" fill="#D08B5D"/>
<path d="M100.41 283.091C105.51 282.257 110.786 282.169 115.845 283.315C110.906 283.592 105.995 284.237 101.152 285.244C93.5975 287.217 86.0937 289.841 79.5516 294.202C73.4708 298.175 68.2817 303.371 64.3138 309.459C63.7178 310.273 64.1851 311.277 64.3645 312.145C66.1017 318.312 69.4777 323.9 73.47 328.864C78.9793 335.608 86.1648 341.07 94.3424 344.121C101.308 346.807 108.937 348.333 116.39 347.173C124.351 346.156 132.125 344.04 139.843 341.873C150.712 338.721 161.413 335.011 171.903 330.759C173.488 330.081 175.238 329.528 176.488 328.281C177.565 326.982 176.264 325.477 175.353 324.551C169.123 318.377 161.216 314.352 153.536 310.31C154.833 310.175 156.154 310.036 157.373 309.527C158.061 309.289 158.799 309.229 159.516 309.354C167.061 311.673 174.192 315.118 181.215 318.668C184.821 320.611 188.597 322.31 191.946 324.69C186.734 328.508 181.672 332.549 176.237 336.059C161.399 345.935 144.255 351.788 126.989 355.683C125.296 355.49 123.602 355.731 121.93 356.002C108.044 357.447 94.0318 357.13 80.2254 355.059C78.5696 354.751 76.3753 354.883 75.5491 353.076C69.2068 342.291 64.9944 330.359 62.0416 318.231C61.6292 316.641 61.0948 315.086 60.4434 313.579C59.4275 315.111 59.7221 317 59.4918 318.729C58.5979 317.258 59.1532 315.267 57.8495 313.955C57.4473 312.291 57.1711 310.599 57.0233 308.893C56.9149 307.944 57.9037 307.445 58.4116 306.801C69.2474 294.531 84.2381 285.847 100.41 283.091Z" fill="#D08B5D"/>
<path d="M222.12 371.206L222.533 371.545L223.4 372.277C223.443 373.585 222.97 374.858 222.083 375.82C222.083 374.288 222.096 372.748 222.12 371.206Z" fill="#D08B5D"/>
<path d="M129.257 19.7096C131.401 19.2179 133.531 18.5941 135.739 18.4347C134.523 19.8486 133.368 21.3133 132.092 22.6695C128.527 26.8047 125.537 31.4033 123.203 36.3404C100.214 44.0981 79.301 57.6232 62.4378 75.044C40.0687 98.0628 24.3433 127.558 17.984 159.056C13.2888 182.552 13.794 206.793 19.4638 230.072C24.4178 250.812 33.7975 270.379 46.3399 287.57C46.6897 288.66 47.1315 289.718 47.6606 290.733C45.7177 295.302 45.1072 300.329 45.8997 305.231C46.3636 307.812 47.4675 310.202 48.2701 312.691C35.3134 299.259 24.6268 283.805 16.6296 266.935C-2.82743 225.413 -5.23162 176.345 9.6134 133.006C20.5812 101.023 40.448 72.023 66.8399 50.842C85.1185 36.1811 106.509 25.3583 129.257 19.7096Z" fill="#FBA102"/>
<path d="M227.423 23.7477C229.241 24.0867 230.883 24.992 232.607 25.6261C249.406 32.5135 265.074 41.8954 279.082 53.4561C305.522 75.4949 325.074 105.536 335.212 138.421C340.403 155.923 343.162 174.182 343 192.453C342.661 223.986 334.419 255.59 318.301 282.769L317.448 282.938C316.879 280.744 316.635 278.476 315.951 276.31C315.562 274.953 314.935 273.675 314.698 272.288C314.698 270.868 315.037 269.471 315.074 268.057C315.186 265.093 314.448 262.181 313.479 259.411C316.695 252.053 319.426 244.491 321.653 236.775C325.646 222.033 328.064 206.792 327.86 191.49C328.294 154.445 315.331 117.531 292.41 88.5182C280.701 73.7725 266.57 60.8984 250.537 51.0081C244.855 47.3971 238.817 44.41 232.8 41.4161C232.441 35.1943 230.298 29.2235 227.423 23.7477Z" fill="#FBA102"/>
<path d="M138.393 24.0325C139.322 24.3578 140.222 24.758 141.085 25.2293C141.989 25.9617 142.934 26.6534 143.882 27.3349C144.292 27.7486 144.712 28.1622 145.139 28.5657C146.134 30.0203 147.089 31.5121 148.122 32.9429L148.183 33.0718L148.355 33.7838C146.71 31.7495 145.491 29.3252 143.439 27.6299C141.918 26.2025 139.927 25.443 138.393 24.0325Z" fill="#1C3B5F"/>
<path d="M148.416 34.0009C149.202 35.562 149.809 37.2066 150.228 38.9037C149.374 37.3734 148.763 35.7193 148.416 34.0009Z" fill="#1C3B5F"/>
<path d="M150.299 39.1206C150.811 40.762 151.237 42.4291 151.576 44.1149C150.782 42.5669 150.346 40.8601 150.299 39.1206Z" fill="#1C3B5F"/>
<path d="M135.146 67.6186C141.177 65.7911 147.089 63.5499 153.211 62.0242C154.542 63.2388 155.97 64.3422 157.481 65.3232C155.5 66.4353 154.112 68.2968 152.246 69.5649C148.542 72.1993 144.438 74.2134 140.286 76.0273C140.764 79.4179 142.013 82.856 141.062 86.294C140.648 87.5621 140.422 89.115 139.287 89.9559C138.483 87.8604 137.231 85.9665 135.618 84.4073C134.005 82.848 132.071 81.6612 129.951 80.9301C127.476 79.9536 124.764 80.3537 122.184 80.486C122.062 77.6006 121.53 74.7457 121.659 71.8365C126.21 70.6668 130.561 68.7884 135.146 67.6186Z" fill="#1C3B5F"/>
<path d="M129.562 119.722C130.632 119.81 131.699 119.922 132.762 120.061C132.923 121.227 132.95 122.408 132.843 123.58C131.607 122.421 130.615 121.048 129.562 119.722Z" fill="#1C3B5F"/>
<path d="M230.166 173.483C238.706 174.605 246.88 177.552 254.78 180.875C257.719 182.336 260.902 183.506 263.418 185.665C264.491 187.622 265.111 189.826 265.693 191.979C257.458 185.787 248.495 180.369 238.756 176.921C236.657 175.826 234.253 175.684 231.94 175.877H231.696C231.098 175.139 230.584 174.336 230.166 173.483Z" fill="#1C3B5F"/>
<path d="M98.2874 178.291C99.8315 177.569 101.497 176.324 103.279 176.935C104.972 177.457 106.807 177.894 108.219 179.044C107.568 179.525 106.957 180.059 106.394 180.641C111.565 183.204 117.23 184.869 121.936 188.273L121.997 187.635C122.766 188.205 123.051 189.134 123.291 190.009C120.491 187.659 117.081 186.188 113.81 184.614C109.001 182.241 103.807 180.885 98.6971 179.383L98.3585 178.481L98.2874 178.291Z" fill="#1C3B5F"/>
<path d="M264.244 186.127C269.144 188.639 273.387 192.294 277.22 196.227C283.029 202.297 287.264 209.7 289.556 217.788C291.381 223.606 291.686 230.028 295.082 235.26C291.384 234.243 287.612 233.442 283.752 233.673C284.842 233.547 285.929 233.371 287.009 233.151C287.125 221.714 283.644 209.929 275.872 201.357C273.085 198.597 270.834 195 267.173 193.342L266.879 193.23C266.228 190.768 265.114 188.49 264.244 186.127Z" fill="#1C3B5F"/>
<path d="M81.8542 187.425C82.1397 187.169 82.4778 186.979 82.8446 186.869C83.2115 186.758 83.5982 186.729 83.9773 186.784C87.1468 187.124 90.3535 187.256 93.4586 187.964C91.7452 187.964 90.6989 189.48 89.358 190.304C83.9635 193.911 78.7872 197.836 73.856 202.056C73.4214 202.513 73.0303 203.011 72.6878 203.541C74.584 203.565 76.4735 203.371 78.3698 203.331C73.5682 203.934 68.7564 204.775 64.2426 206.575C62.2109 207.321 60.3248 208.42 58.2897 209.169C60.7684 205.568 63.9718 202.557 67.0566 199.499C71.5907 194.99 76.7546 191.23 81.8542 187.425Z" fill="#1C3B5F"/>
<path d="M150.326 200.889C151.373 199.238 153.597 199.872 155.023 200.618C158.612 202.503 161.609 205.287 164.738 207.823C171.778 214.068 178.845 220.497 184.066 228.397C188.058 234.439 190.06 241.62 190.3 248.842C189.379 246.53 189.325 243.957 188.4 241.634C185.434 233.456 179.664 226.692 173.596 220.612C167.622 214.488 161.29 208.725 154.633 203.354C153.353 202.286 151.895 201.451 150.326 200.889Z" fill="#1C3B5F"/>
<path d="M225.08 202.9C225.638 202.09 226.356 201.015 227.511 201.262C233.125 202.1 238.746 202.907 244.384 203.575C245.149 203.551 246.389 204.019 246.416 202.846L246.721 203.595C246.345 203.934 245.969 204.273 245.603 204.612C245.586 204.931 245.552 205.575 245.539 205.894C238.675 205.358 231.866 204.131 225.08 202.9Z" fill="#1C3B5F"/>
<path d="M63.7957 207.358C65.7021 206.772 67.6153 205.917 69.63 205.904C67.4053 208.64 64.7065 210.942 62.536 213.729C58.5301 218.263 55.0627 223.349 52.8109 228.987C49.4484 236.528 47.8704 245.126 49.7633 253.267C50.2205 256.529 51.3345 259.648 52.5942 262.676C54.3584 267.321 57.3619 271.332 60.142 275.394C58.7875 276.967 57.0131 278.069 55.5943 279.565C54.1383 280.877 53.2003 282.667 51.6528 283.884C51.1076 282.009 50.8638 280.063 50.3356 278.185C49.2283 273.919 47.0408 270.047 45.8015 265.833C42.6659 254.233 43.1941 241.759 46.797 230.347C48.9759 223.792 52.0382 217.566 55.8991 211.841C57.8292 209.379 61.0054 208.488 63.7957 207.358Z" fill="#1C3B5F"/>
<path d="M120.196 235.11C121.798 241.244 121.608 247.656 121.588 253.949C121.635 257.573 121.073 261.171 120.355 264.714C120.149 265.527 120.054 266.443 119.431 267.063C118.567 265.165 117.324 263.497 116.129 261.811C117.172 261.035 117.413 259.719 117.748 258.55C119.793 250.915 120.619 243.004 120.196 235.11Z" fill="#1C3B5F"/>
<path d="M281.642 236.148C287.338 235.534 292.935 237.704 297.94 240.241C299.538 240.969 301.204 242.224 301.181 244.174C296.653 242.763 292.038 241.434 287.297 241.2L287.216 240.986C287.152 239.488 288.367 237.759 287.152 236.514C286.474 237.559 285.797 238.644 284.876 239.488C285.094 238.443 285.392 237.416 285.767 236.416C284.521 236.379 283.271 236.362 282.042 236.324L281.642 236.148Z" fill="#1C3B5F"/>
<path d="M143.425 248.259C149.216 247.483 155.074 247.696 160.905 247.663C162.208 247.727 163.614 247.49 164.826 248.086C162.202 248.68 159.432 248.222 156.858 248.941C155.521 249.078 154.176 249.136 152.832 249.114C150.001 248.029 146.933 249.561 144.082 248.809L143.425 248.259Z" fill="#1C3B5F"/>
<path d="M213.269 249.137C213.743 250.209 213.827 251.392 213.98 252.548C214.362 255.705 214.85 258.855 215.487 261.974C215.496 262.171 215.581 262.357 215.725 262.493C215.868 262.629 216.058 262.704 216.255 262.703C222.083 263.988 227.849 265.558 233.606 267.145C234.473 267.311 235.397 267.701 236.288 267.43C240.331 264.29 244.733 261.666 248.945 258.77C248.594 260.061 248.054 261.293 247.34 262.425C247.32 262.14 247.29 261.56 247.269 261.276C245.915 262.656 244.733 264.266 242.942 265.093C240.91 266.053 239.156 267.636 236.874 267.979C236.349 268.657 236.047 269.898 234.96 269.715C232.624 269.654 230.433 268.721 228.188 268.216C223.627 267.155 219.12 265.883 214.643 264.487C213.722 261.52 213.912 258.383 213.421 255.332C213.174 253.284 213.292 251.202 213.269 249.137Z" fill="#1C3B5F"/>
<path d="M214.264 337.069C215.28 337.123 214.874 338.147 214.765 338.785C212.845 348.716 211.173 358.711 208.806 368.547C207.414 368.754 206.026 368.974 204.63 369.147C206.151 366.174 207.024 362.929 208.122 359.783C210.59 352.333 212.26 344.65 214.264 337.069Z" fill="#1C3B5F"/>
<path d="M233.796 344.722C237.964 345.817 242.048 347.288 246.324 347.861C244.97 347.607 243.893 348.604 242.701 349.048C239.674 350.336 236.711 351.76 233.694 353.045L232.539 352.669C232.888 350.004 233.318 347.363 233.796 344.722Z" fill="#1C3B5F"/>
<path d="M116.789 364.353C121.134 363.851 125.397 362.888 129.657 361.98C129.804 364.147 129.828 366.32 129.728 368.49C126.322 368.249 122.99 367.473 119.651 366.842C117.558 366.33 115.347 366.065 113.454 364.98C114.547 364.683 115.663 364.473 116.789 364.353Z" fill="#1C3B5F"/>
<path d="M222.533 371.558C224.199 370.276 226.241 369.948 228.29 370.202C229.766 371.517 229.925 373.559 229.546 375.393C228.435 377.034 226.444 377.661 224.687 378.336C217.613 380.608 210.296 381.971 203.015 383.34C202.947 380.652 202.145 377.865 200.425 375.769C207.732 374.637 214.87 372.602 222.13 371.199C222.107 372.741 222.093 374.281 222.093 375.827C222.98 374.865 223.453 373.592 223.41 372.284L222.533 371.558ZM205.772 379.285C205.658 378.149 205.618 377.006 205.65 375.864C205.138 376.936 204.901 378.322 205.772 379.285Z" fill="#1C3B5F"/>
<path d="M111.781 371.107C114.267 371.009 116.461 372.426 118.892 372.694C123.826 373.348 128.733 374.23 133.673 374.871C141.586 376.108 149.588 376.712 157.566 377.278C160.376 377.383 163.15 377.956 165.974 377.787C164.958 380.333 164.081 382.978 164.406 385.768C162.141 385.694 159.845 385.894 157.634 385.354C146.73 384.639 135.935 382.642 125.16 380.797C120.809 379.74 116.282 379.214 112.171 377.326C111.493 376.986 111.002 376.417 110.478 375.922C110.268 374.179 110.325 372.311 111.781 371.107Z" fill="#1C3B5F"/>
<path d="M121.11 67.9441C120.917 52.11 125.851 35.8555 136.572 23.9817L138.393 24.0326C139.927 25.443 141.915 26.2127 143.439 27.63C145.491 29.3253 146.71 31.736 148.355 33.7839L148.416 33.9873C148.762 35.7058 149.374 37.3599 150.228 38.8901L150.299 39.1207C150.346 40.8602 150.782 42.567 151.576 44.115C151.637 44.3388 151.759 44.7932 151.819 45.0237C152.497 49.0924 152.835 53.2154 153.235 57.3214V57.4977C142.545 61.0103 131.797 64.3908 121.11 67.9441Z" fill="#026EB6"/>
<path d="M181.134 53.707C190.649 51.7811 200.435 50.2384 210.14 51.2827C215.375 51.7348 220.541 52.7813 225.54 54.402C226.695 54.7716 227.961 54.9411 228.95 55.6972C229.58 56.4635 229.847 57.4502 230.227 58.3521C227.938 58.8166 225.584 58.6911 223.292 59.1116C209.998 61.2273 197.492 66.4115 184.777 70.6192C181.669 71.7347 178.103 72.1755 175.032 70.704C170.23 68.8019 166.038 65.7571 161.914 62.7192C160.671 61.7461 159.232 61.0476 158.094 59.9389C165.639 57.3959 173.369 55.4565 181.134 53.707ZM212.381 56.4567C211.433 57.6875 209.165 56.2126 207.979 57.3925C207.363 57.3925 206.75 57.3688 206.137 57.3451L206.286 57.9486C205.541 57.9079 204.742 57.674 204.058 58.074C203.374 58.4741 202.294 57.9893 201.864 58.7793C201.207 58.7555 200.509 58.7284 200.012 59.1963C198.935 59.3896 197.421 59.3523 196.72 60.2406C196.382 60.2169 195.738 60.1627 195.403 60.1423L195.45 60.7662L193.977 60.5831L194.072 61.2036C193.016 60.8136 192.196 61.7189 191.174 61.5765L191.235 62.1597C190.872 62.1292 190.151 62.0614 189.789 62.0241L189.829 62.5937C187.981 62.4988 186.443 63.9499 184.594 63.933L184.703 64.5128L183.233 64.4009V65.0553C182.989 64.9705 182.498 64.8044 182.255 64.7162L182.343 65.4147C180.724 65.4825 179.109 65.357 177.497 65.435L177.605 64.8247L176.315 64.8925C175.773 64.133 174.622 64.011 173.738 63.9974L173.847 63.4278C172.946 63.6617 172.306 62.7768 171.398 63.065L171.51 62.5259C170.599 62.7293 169.98 61.7732 169.065 62.1597L169.14 61.5358L167.636 61.7054L167.735 60.9866L166.773 61.2951L166.719 60.6577L165.283 60.7865L165.418 60.1966C164.237 60.3695 163.316 59.4642 162.286 59.0539C163.224 59.8677 164.21 60.8611 165.432 61.1493L165.408 61.7359L166.363 61.5019L166.292 62.0376C168.07 62.9192 169.543 64.5162 171.541 64.9129L171.507 65.5028L172.485 65.2418L172.384 65.9911C172.638 65.9199 173.156 65.7842 173.4 65.7198L173.312 66.4997L174.351 66.1843L174.253 66.954L175.269 66.6353L175.218 67.3405L176.65 67.1744L176.62 67.805C177.636 67.6186 178.418 68.5747 179.464 68.1712L179.505 68.6425C180.077 68.6425 180.66 68.6425 181.242 68.6425L181.296 68.2051C182.312 68.412 183.138 67.7847 184.114 67.7542L184.093 67.2558C184.923 67.4253 185.603 66.7777 186.426 66.798L186.45 66.3335C187.256 66.581 187.757 66.3946 187.953 65.7605C188.174 65.8249 188.631 65.9673 188.837 66.0352L188.732 65.357C189.554 65.669 190.08 65.4938 190.31 64.8315L191.16 65.0654L191.126 64.428C192.142 64.7298 192.968 63.9262 193.974 63.9872L193.906 63.4753C194.645 63.7363 195.159 63.6007 195.457 63.065C198.305 62.5734 200.906 60.9764 203.797 60.6645V60.1966C204.489 60.3262 205.203 60.1971 205.805 59.8338C206.483 59.9649 206.944 59.775 207.19 59.2641C207.529 59.2641 208.183 59.3184 208.518 59.3353L208.487 58.7962C209.083 58.6403 210.258 59.2472 210.482 58.3555C211.735 58.5385 212.852 57.8842 214.105 57.8469L214.152 57.3993C214.775 57.4197 215.402 57.4332 216.032 57.4434L215.994 56.9077C216.777 56.9484 217.572 56.9585 218.365 56.9484V56.4228C220.236 56.5071 222.111 56.3648 223.949 55.999C221.392 55.999 218.822 55.9481 216.272 56.1753C214.999 56.5957 213.672 56.4398 212.381 56.4567Z" fill="#026EB6"/>
<path d="M121.232 162.02C121.747 156.384 125.448 151.621 129.877 148.366C129.738 152.885 129.085 157.473 130.128 161.945C131.303 167.18 133.578 172.263 137.096 176.341C140.537 180.749 145.25 183.882 149.656 187.242C155.714 192.097 161.535 197.255 167.112 202.656L167.684 203.588C163.84 200.754 160.309 197.326 155.805 195.536C153.975 194.793 151.953 194.674 150.049 195.196C147.536 196.017 145.68 197.973 143.699 199.604C141.559 201.33 139.636 203.286 137.493 205.029C133.043 197.041 128.289 189.185 124.625 180.776C122.278 174.86 120.247 168.462 121.232 162.02ZM124.618 159.48C124.733 160.531 124.341 161.775 124.977 162.708C125.048 163.806 124.838 165 125.411 166.003C125.35 167.119 126.132 168.038 125.925 169.16H126.518C126.474 169.526 126.389 170.265 126.349 170.632L127.026 170.52C126.978 170.889 126.89 171.632 126.843 172.005L127.446 171.944C127.046 172.744 127.984 173.134 127.842 173.92L128.35 173.863C128.164 174.592 128.756 175.121 128.81 175.816L129.4 175.701L129.156 176.697L129.894 176.663C129.826 176.894 129.701 177.362 129.637 177.599L130.202 177.559C130.355 178.077 130.514 178.6 130.683 179.115L131.299 178.983C131.225 179.227 131.086 179.722 131.015 179.969L131.614 179.915C131.563 181.159 132.891 181.712 133.07 182.834L133.538 182.733C133.595 183.512 133.995 184.95 135.048 184.682C134.983 184.906 134.851 185.36 134.787 185.598L135.373 185.571C134.875 186.879 136.677 186.062 136.372 187.195C136.446 187.293 136.595 187.49 136.677 187.588C136.758 187.686 137.015 187.971 137.124 188.097C137.615 188.978 138.478 189.595 138.952 190.501C139.379 191.036 139.768 191.914 140.618 191.745C140.581 191.958 140.5 192.386 140.459 192.596L140.994 192.654C141.072 192.86 141.238 193.267 141.333 193.474C141.671 191.558 141.129 189.527 141.868 187.71C142.172 186.713 141.935 185.157 140.513 185.699L140.489 185.157C138.715 183.323 136.876 181.556 135.099 179.732L134.35 179.464C134.391 179.257 134.469 178.847 134.506 178.64H134.005C133.954 177.772 133.023 177.406 132.677 176.697C132.636 176.438 132.507 176.2 132.312 176.025C132.116 175.849 131.866 175.747 131.604 175.734C132.081 174.602 130.483 174.483 130.707 173.436C129.691 173.714 130.331 172.079 129.691 171.561L129.139 171.598C129.193 171.354 129.305 170.876 129.362 170.635L128.651 170.669C128.719 170.432 128.844 169.957 128.905 169.716L128.177 169.743C128.235 169.506 128.353 169.024 128.407 168.787H127.696L127.994 167.807L127.236 167.895C127.307 167.648 127.446 167.143 127.517 166.895H126.907C126.978 166.051 126.399 165.369 126.443 164.522H125.973C126.156 163.844 126.027 163.345 125.58 162.979C125.516 162.488 125.362 162.014 125.126 161.579C124.96 160.867 124.822 160.165 124.615 159.48H124.618Z" fill="#026EB6"/>
<path d="M215.27 163.443C216.838 164.501 217.897 166.136 219.116 167.553C224.561 174.046 229.187 181.18 233.484 188.473C234.988 191.524 236.921 194.386 238.113 197.58C237.097 197.438 236.081 197.288 235.065 197.17L234.974 196.993C232.316 190.551 228.567 184.638 224.741 178.847C223.048 176.694 221.663 174.327 220 172.157C220.901 173.853 222.032 175.446 222.462 177.352C222.801 178.25 223.085 179.162 223.41 180.064C223.519 180.335 223.749 180.871 223.847 181.139C224.092 182.235 224.414 183.312 224.809 184.363C224.883 184.984 224.968 185.601 225.063 186.228C225.564 187.035 225.337 188.022 225.374 188.941L225.902 188.89C225.808 190.958 225.879 193.03 225.818 195.095C226.603 195.047 227.392 195 228.188 194.959L228.263 195.559L229.641 195.413L229.712 196.275C228.215 195.993 226.685 195.641 225.161 195.936C223.434 196.692 222.371 198.343 221.097 199.665C218.595 202.317 216.018 204.907 213.583 207.623C212.5 208.813 211.491 210.095 210.146 211.013C210.36 209.756 211.247 208.871 211.992 207.928C216.204 202.564 220.708 196.739 221.053 189.619C221.297 181.648 217.467 174.175 212.659 168.055C213.306 166.454 214.647 165.108 215.27 163.443Z" fill="#026EB6"/>
<path d="M104.389 175.348C108.497 173.12 112.211 170.262 115.902 167.444C116.515 173.293 118.31 178.993 120.623 184.397C120.796 184.908 120.942 185.427 121.059 185.954C118.689 184.357 116.336 182.682 113.779 181.366C110.332 179.579 106.936 177.562 103.177 176.497C103.275 175.836 103.888 175.619 104.389 175.348Z" fill="#026EB6"/>
<path d="M231.94 175.877C234.253 175.684 236.657 175.826 238.756 176.921C248.495 180.369 257.458 185.788 265.693 191.979C266.831 195.288 267.095 198.838 267.156 202.32C267.437 210.963 264.549 219.371 260.536 226.915C259.131 229.489 257.862 232.135 256.734 234.843C256.835 233.124 257.252 231.452 257.323 229.719C255.386 230.079 253.544 230.791 251.675 231.381C238.878 235.806 225.635 238.721 212.591 242.302C212.513 244.608 213.147 246.849 213.269 249.137C213.292 251.202 213.174 253.284 213.414 255.346C213.905 258.397 213.716 261.52 214.637 264.5C219.11 265.897 223.617 267.169 228.181 268.23C230.436 268.735 232.627 269.667 234.954 269.728C236.041 269.912 236.342 268.667 236.867 267.992C239.149 267.653 240.91 266.067 242.935 265.107C244.726 264.28 245.925 262.669 247.262 261.289C247.283 261.574 247.313 262.154 247.334 262.439C246.433 264.473 245.847 266.609 245.153 268.718C233.301 271.013 221.622 274.414 210.681 279.517C198.525 277.589 186.269 276.36 173.972 275.835C174.029 271.356 173.389 266.914 173.213 262.449C172.777 256.427 172.221 250.419 171.815 244.397C162.581 244.584 153.353 244.923 144.133 245.36C146.503 234.304 146.303 222.494 142.531 211.766C142.26 210.603 141.241 209.481 141.481 208.288C144.502 205.914 147.214 203.174 150.319 200.903C151.887 201.47 153.343 202.309 154.62 203.381C161.277 208.753 167.609 214.515 173.582 220.639C179.651 226.705 185.434 233.469 188.387 241.661C189.311 243.984 189.365 246.557 190.287 248.87C193.334 250.032 197.37 250.789 200.045 248.48C198.975 241.403 200.706 234.056 204.282 227.912C209.699 218.419 217.735 210.885 225.066 202.927C231.838 204.158 238.662 205.385 245.535 205.931C245.535 205.612 245.583 204.968 245.6 204.649C245.966 204.31 246.341 203.971 246.717 203.632L246.412 202.883C242.374 193.48 237.532 184.445 231.94 175.877Z" fill="#026EB6"/>
<path d="M108.219 179.044L108.351 178.942C112.15 180.698 115.851 182.722 119.143 185.323C120.088 186.103 121.364 186.523 121.997 187.635L121.94 188.273C117.219 184.882 111.568 183.187 106.397 180.641C106.959 180.059 107.569 179.525 108.219 179.044Z" fill="#026EB6"/>
<path d="M93.4688 187.964C102.632 189.765 111.202 194.745 116.908 202.205C123.724 211.424 126.101 223.443 124.75 234.704C123.328 226.617 119.478 218.825 113.2 213.438C103.817 205.104 90.6346 202.249 78.3834 203.33C76.4871 203.371 74.5976 203.564 72.7014 203.541C73.0439 203.01 73.435 202.513 73.8696 202.056C78.7997 197.837 83.975 193.914 89.3681 190.307C90.7091 189.48 91.7554 187.954 93.4688 187.964Z" fill="#026EB6"/>
<path d="M267.16 193.359C270.82 195.017 273.072 198.614 275.859 201.374C283.647 209.946 287.111 221.718 286.996 233.168C285.916 233.388 284.829 233.564 283.738 233.69C278.761 234.415 273.756 236.335 270.116 239.895C273.986 238.443 277.819 236.606 282.018 236.341C283.261 236.379 284.51 236.396 285.743 236.433C285.368 237.433 285.071 238.46 284.853 239.505C285.784 238.66 286.441 237.575 287.128 236.531C288.344 237.776 287.128 239.505 287.192 241.003C277.823 240.464 268.132 242.746 260.509 248.354C258.962 241.573 261.864 234.883 264.234 228.665C267.014 221.955 268.203 214.703 268.534 207.484C268.619 202.737 268.277 197.95 267.16 193.359ZM269.991 205.565C270.989 210.396 272.405 215.194 272.73 220.144C272.899 221.752 272.168 223.298 272.33 224.891C273.39 222.928 274.63 220.941 275.06 218.734C274.721 215.567 273.279 212.655 272.151 209.708C271.467 208.318 271.111 206.687 269.991 205.565Z" fill="#026EB6"/>
<path d="M69.6301 205.904C71.7972 205.07 74.1642 204.887 76.4668 204.758C85.6095 203.907 95.0908 205.406 103.194 209.82C108.164 212.476 112.346 216.399 115.316 221.192C117.981 225.393 119.349 230.248 120.196 235.094C120.619 242.987 119.793 250.898 117.748 258.533C117.409 259.702 117.172 261.018 116.129 261.795C113.082 258.265 108.249 256.597 103.665 256.688C101.707 256.943 99.5097 257.109 97.9081 258.384C101.139 259.102 104.528 259.367 107.562 260.791C109.255 261.489 110.701 262.605 112.1 263.751C102.659 261.099 92.5884 262.056 83.2324 264.605C74.9294 266.64 66.7823 269.898 60.1183 275.384C57.3382 271.315 54.3347 267.311 52.5705 262.666C51.3108 259.638 50.2002 256.519 49.7396 253.257C47.8569 245.12 49.4349 236.518 52.7872 228.977C55.039 223.338 58.5065 218.253 62.5123 213.719C64.7133 210.942 67.4223 208.64 69.6301 205.904ZM75.5965 223.023C68.3298 223.722 61.7335 228.177 57.5549 234.059C54.1281 238.776 52.347 244.872 53.4238 250.673C54.355 255.61 57.7547 259.828 62.0721 262.29C67.0769 265.266 73.3142 265.863 78.8608 264.195C85.2946 262.574 90.8648 258.15 94.2849 252.497C96.7161 248.13 97.9115 242.983 97.153 238.003C96.3926 233.813 94.0156 230.092 90.5364 227.644C86.3043 224.296 80.9773 222.648 75.5965 223.023Z" fill="#026EB6"/>
<path d="M258.244 253.742C266.069 249.056 275.073 245.943 284.27 246.177C289.969 246.137 295.627 247.273 301.066 248.947C302.728 249.432 303.724 250.982 304.662 252.338C307.249 256.325 309.402 260.855 309.589 265.677C303.934 260.323 296.01 258.445 288.54 257.302C275.811 256.02 262.097 258.394 251.905 266.551C252.014 265.641 252.242 264.748 252.582 263.897C253.784 260.869 254.98 257.794 256.811 255.081C257.184 254.534 257.674 254.077 258.244 253.742Z" fill="#026EB6"/>
<path d="M76.5887 271.919C84.8408 268.467 93.7397 266.192 102.723 266.395C108.067 266.511 113.183 268.213 118.154 270.013C119.874 270.674 120.772 272.407 121.977 273.695C124.134 276.452 126.555 279.459 126.565 283.152C119.031 277.879 109.391 276.391 100.421 277.727C82.8667 280.175 66.6265 289.648 54.9069 302.817C53.9724 303.733 53.478 305.174 52.198 305.658C50.5001 301.632 50.1508 297.162 51.2025 292.92C51.9677 290.282 54.013 288.319 55.7772 286.319C61.5316 279.998 68.6489 275.073 76.5887 271.919Z" fill="#026EB6"/>
<path d="M183.443 338.442C187.953 334.75 192.247 330.803 196.554 326.877C202.416 330.339 208.179 333.997 214.264 337.069C212.259 344.65 210.59 352.327 208.122 359.786C207.024 362.932 206.151 366.177 204.63 369.151C193.402 370.636 182.085 371.697 170.741 371.524C164.247 371.524 157.762 371.09 151.278 370.7C151.301 365.72 151.461 360.735 151.312 355.755C155.375 353.998 159.577 352.537 163.593 350.645C170.713 347.461 177.386 343.359 183.443 338.442Z" fill="#026EB6"/>
<path d="M183.883 375.227C187.764 375.278 191.631 374.816 195.518 375.054C191.324 375.326 187.151 375.859 183.023 376.651C179.444 376.858 175.912 377.444 172.296 377.295C172.323 380.764 172.347 384.236 172.465 387.707C175.702 387.924 178.879 387.077 182.106 387.246C180.751 387.792 179.224 387.626 177.788 387.806C175.689 387.904 173.589 388.355 171.49 388.084C170.87 383.974 170.833 379.773 170.877 375.627C175.208 375.4 179.549 375.339 183.883 375.227Z" fill="#026EB6"/>
<path d="M62.4378 75.0439C79.301 57.6231 100.214 44.098 123.203 36.3403C121.299 40.4731 119.824 44.7904 118.801 49.2246C118.862 46.4341 120.352 43.9522 120.548 41.1821C119.382 41.4367 118.254 41.8413 117.192 42.3858C94.0241 53.7951 74.1439 71.3448 58.7401 91.9969C38.23 119.369 25.7079 152.672 23.2191 186.791C22.9888 192.894 22.5012 199.021 23.0972 205.127C23.0972 210.346 23.7744 215.537 24.5465 220.694C26.9299 237.644 32.0224 254.1 39.6285 269.43C40.1635 270.518 41.0033 271.41 41.772 272.336C42.8217 274.746 44.0475 277.083 44.6942 279.659C45.341 282.236 45.8117 284.932 46.3399 287.57C33.811 270.379 24.4009 250.812 19.4672 230.072C13.7962 206.793 13.2899 182.552 17.984 159.056C24.3433 127.557 40.0687 98.0627 62.4378 75.0439Z" fill="#C80003"/>
<path d="M227.778 64.1771C228.666 64.1398 229.559 64.0889 230.457 64.0347C230.396 64.8281 230.355 65.6249 230.24 66.4081C230.105 67.2964 229.942 68.1848 229.8 69.0697C228.974 69.0697 228.144 69.0697 227.328 69.0019C227.25 67.3744 227.037 65.6757 227.778 64.1771Z" fill="#F9C291"/>
<path d="M207.316 73.1113C213.638 70.6158 220.403 68.473 227.267 68.9849C226.834 72.0806 226.928 75.2948 225.818 78.2548C222.665 77.614 219.242 77.4038 216.255 78.8278C214.223 79.845 212.954 81.7777 211.701 83.5747C210.346 85.609 208.877 87.6434 208.074 89.9795C209.843 88.765 211.767 87.7934 213.793 87.0907C218.273 85.1818 223.092 83.2288 228.056 84.0087C228.801 84.2087 229.786 84.2562 230.23 84.9885C229.942 87.8638 228.774 90.5457 228.012 93.3125C227.501 95.1671 227.646 97.1167 227.816 99.0053C228.293 103.857 229.387 108.645 229.485 113.531C229.546 115.612 228.676 117.552 227.707 119.342C223.857 126.601 220.258 134.081 218.307 142.11C217.254 146.443 216.157 150.875 213.807 154.713C208.704 159.799 201.302 161.423 194.401 162.213C192.081 162.66 189.714 162.508 187.388 162.799C184.923 162.714 182.498 162.091 180.138 161.423C170.572 158.419 161.514 153.913 153.001 148.667C149.039 146.124 145.071 143.541 141.624 140.32C140.09 138.933 139.094 137.075 138.434 135.139C135.806 127.564 134.709 119.542 134.418 111.554C133.842 113.181 133.781 114.944 133.307 116.592C131.347 116.294 129.769 114.978 128.282 113.761C124.265 110.151 120.938 105.839 118.462 101.036C116.861 97.7948 115.953 93.8956 117.203 90.3864C117.985 88.4232 119.197 86.4499 121.127 85.4598C124.747 83.9985 128.986 85.1208 131.905 87.5722C136.362 91.3256 137.702 97.3778 139.087 102.769C139.565 100.395 139.426 97.944 140.012 95.5875C140.781 92.0817 143.019 89.0946 143.682 85.5582C144.224 82.7067 143.842 79.767 143.005 77.0139C147.472 75.1626 151.582 72.5417 155.419 69.6258C156.526 71.4703 158.318 72.7044 159.821 74.1895C161.619 75.9221 163.434 77.6581 165.506 79.0652C161.003 81.6251 158.558 86.5448 157.156 91.3459C159.465 90.2677 161.819 89.2776 163.986 87.9316C166.803 86.182 169.743 84.4596 173.054 83.89C175.32 83.6357 177.49 84.5681 179.651 85.0699C183.115 85.9345 186.389 87.3891 189.809 88.3995C191.841 89.237 194.055 89.6947 196.243 89.3353C196.243 89.4607 196.29 89.7049 196.304 89.8269C193.595 90.0405 190.974 89.4099 188.492 88.3757L188.746 89.5285C191.031 90.4983 193.517 90.8848 195.969 91.1866C199.483 91.5256 203.452 88.2401 202.599 84.5105L202.192 84.5206C197.817 84.0866 193.341 83.1644 189.514 80.8961C191.252 79.7433 193.277 79.1635 195.139 78.2514C199.111 76.3832 203.208 74.7354 207.316 73.1113ZM164.335 93.6413C164.831 93.8741 165.356 94.0405 165.896 94.1364L165.987 94.2652C168.439 95.5435 170.762 97.1133 173.396 98.0186L173.091 97.6117C174.118 98.2425 175.269 98.6417 176.465 98.7816C177.661 98.9216 178.873 98.7989 180.016 98.4221C184.188 98.1407 187.723 95.496 190.71 92.7632C191.074 92.9575 191.45 93.1263 191.837 93.2684C190.083 90.6678 187.754 88.1486 184.618 87.3077C177.473 84.3647 168.801 87.5925 164.335 93.6413ZM208.017 90.5898C207.001 92.5597 206.283 94.7806 206.628 97.0319C207.221 100.975 208.521 104.79 210.045 108.465C210.803 110.377 212.124 112.086 212.507 114.127C209.523 114.012 206.55 113.731 203.571 113.541C200.208 113.063 196.862 112.405 193.527 111.747C192.37 111.386 191.132 111.376 189.969 111.717C188.806 112.057 187.769 112.734 186.988 113.663C185.444 114.029 184.594 115.511 183.988 116.853C183.257 118.705 182.634 120.708 182.776 122.726C185.082 121.97 187.029 120.305 189.494 119.963C194.834 118.864 199.71 122.336 205.003 122.336C207.478 122.336 210.36 122.241 212.246 120.41C213.14 119.339 212.686 118.037 211.457 117.521C213.008 116.867 214.596 115.429 214.051 113.561C213.147 110.316 210.875 107.655 209.818 104.454C208.464 100.724 206.246 96.4962 208.084 92.5292C208.392 91.4273 209.655 91.0238 210.712 91.112C209.696 91.39 209.269 92.2783 208.887 93.1124L209.51 93.0141C211.142 95.4723 213.77 97.0489 216.475 98.0695C219.523 98.6696 222.848 97.293 224.92 95.0349L224.836 95.6689C226.214 93.9736 226.962 91.6443 226.075 89.5285C225.54 87.7858 223.559 86.9958 221.869 87.2094C217.132 87.7383 212.689 89.6065 208.027 90.5966L208.017 90.5898ZM120.186 89.359C122.954 88.9985 125.761 89.6302 128.109 91.1425C125.739 91.6748 124.171 93.8244 123.084 95.8622C121.896 98.0728 121.276 101.033 122.929 103.186C125.377 106.42 129.511 107.478 132.748 109.696C133.03 109.872 133.907 110.537 133.869 109.774C134.547 107.085 132.891 104.735 132.176 102.274C132.298 100.609 133.754 99.2663 133.551 97.527C133.351 94.7128 131.408 92.3834 129.315 90.6644C126.843 88.6165 123.108 87.7553 120.196 89.3658L120.186 89.359ZM146.544 113.222C148.305 115.68 150.465 117.823 152.104 120.373C154.027 122.621 155.561 125.221 157.739 127.239C157.823 127.659 157.936 128.072 158.077 128.476C158.331 126.635 158.497 124.774 158.572 122.919C158.572 121.651 158.497 120.169 157.451 119.288C155.697 117.745 153.597 116.647 151.45 115.758C150.045 114.592 148.254 113.91 146.554 113.229L146.544 113.222ZM173.088 122.57C170.765 123.906 168.27 125.259 166.763 127.557C167.65 127.418 168.696 126.74 169.509 127.459C173.308 129.493 177.128 131.487 181.022 133.338C184.547 135.034 188.031 136.841 191.804 137.909C195.169 138.889 198.711 139.814 202.236 139.17C204.945 138.685 207.736 138.231 210.19 136.949C213.032 134.82 213.726 131.012 216.238 128.598C216.871 128.937 217.511 129.276 218.162 129.568C217.484 127.659 216.215 125.727 214.437 124.709C214.851 126.042 215.444 127.311 216.201 128.483C211.653 129.883 206.848 129.222 202.226 130.053C200.933 130.114 199.69 129.714 198.427 129.493C196.263 129.053 194.065 129.493 191.885 129.463C184.317 129.443 176.82 128.188 169.441 126.615C170.772 125.411 172.394 124.286 173.098 122.577L173.088 122.57ZM199.338 143.134C196.737 143.08 194.259 142.178 191.688 141.903C194.309 143.547 197.167 145.08 200.279 145.48C203.594 145.443 206.645 143.547 208.938 141.266C205.917 142.527 202.663 143.415 199.348 143.141L199.338 143.134Z" fill="#F9C291"/>
<path d="M135.634 145.941C135.779 145.263 135.972 144.609 136.142 143.951C137.221 145.789 138.51 147.496 139.981 149.037C148.462 159.022 158.616 167.45 169.986 173.944C176.386 177.355 183.108 180.824 190.48 181.298C193.29 181.536 195.691 179.803 197.668 178.023C199.646 176.243 201.976 174.829 203.594 172.693C204.075 172.134 203.76 171.371 203.747 170.727C204.834 170.076 205.856 169.333 206.889 168.601C205.822 170.733 204.112 172.635 203.892 175.111C205.965 174.541 207.455 172.88 209.215 171.747C209.402 172.086 209.767 172.819 209.95 173.175C211.057 174.09 211.738 175.399 212.476 176.609C211.833 175.618 211.017 174.75 210.069 174.046C206.368 179.498 204.525 186.144 199.991 191.04C202.839 187.151 205.071 182.861 207.18 178.538C208.02 176.704 209.347 175.087 209.811 173.09C205.579 178.413 202.944 184.882 198.241 189.877C196.189 191.972 193.5 193.637 190.497 193.766C186.094 193.959 181.892 192.264 177.995 190.375C170.286 186.396 162.833 181.939 155.68 177.03C149.141 172.605 142.934 167.709 136.66 162.918L136.487 162.721C136.057 162.487 135.63 162.26 135.204 162.043C134.645 159.724 134.12 157.317 134.57 154.923C135.075 151.949 135.342 148.942 135.634 145.941Z" fill="#F9C291"/>
<path d="M220.01 172.157C221.67 174.327 223.058 176.694 224.751 178.847C224.301 179.247 223.847 179.644 223.424 180.068C223.085 179.162 222.807 178.25 222.476 177.355C222.035 175.446 220.911 173.849 220.01 172.157Z" fill="#F9C291"/>
<path d="M74.5536 234.971C74.7432 234.927 75.1157 234.832 75.3053 234.792L75.4171 235.192L75.0988 235.388L74.5536 234.971Z" fill="#F9C291"/>
<path d="M274.961 266.324C280.318 265.582 285.912 264.7 291.215 266.324C295.729 267.579 298.888 271.637 300.412 275.899C303.226 283.698 303.192 292.279 301.469 300.312C300.155 306.788 297.727 313.118 293.856 318.499C291.974 321.167 289.363 323.246 286.508 324.788C276.868 330.064 266.103 333.132 255.206 334.282C246.321 335.241 237.497 332.838 229.241 329.759C214.938 324.47 200.895 318.516 186.86 312.552C183.074 310.741 178.943 309.558 175.536 307.035C176.058 306.462 176.655 305.962 177.311 305.55C179.976 303.834 182.265 301.6 184.395 299.264C183.48 298.084 181.899 298.081 180.551 297.908C170.377 297.229 160.169 297.247 149.998 297.962C143.225 298.559 136.741 296.053 130.202 294.714C130.995 291.825 131.614 288.885 132.4 285.993C142.961 283.487 153.834 282.667 164.663 282.572C185.234 282.643 205.866 285.037 225.733 290.486C228.181 291.076 230.542 292.381 233.125 292.13C236.718 291.811 240.209 290.815 243.69 289.885C256.585 286.495 270.38 284.647 283.468 288.105C280.244 284.179 276.103 280.792 271.125 279.449C266.222 278.001 261.027 278.771 256.08 279.551C254.424 279.924 252.694 279.985 251.102 280.636C251.16 278.263 251.082 275.92 251.306 273.577C251.37 275.638 251.306 277.706 251.455 279.768C252.206 279.731 252.965 279.72 253.717 279.609C254.658 277.822 254.109 275.269 255.968 273.963C261.403 269.698 268.223 267.528 274.961 266.324Z" fill="#F9C291"/>
<path d="M218.974 281.514C227.155 278.093 235.851 276.045 244.52 274.265C244.415 276.998 244.452 279.744 244.432 282.48C241.594 283.433 238.841 284.657 235.966 285.532C230.325 284.128 224.721 282.453 218.974 281.514Z" fill="#F9C291"/>
<path d="M307.049 281.514C306.947 279.27 306.514 276.893 307.462 274.77C309.578 279.042 310.063 283.867 310.638 288.536C312.132 304.57 310.32 320.747 306.995 336.435C306.891 336.878 306.681 337.289 306.382 337.633C306.084 337.976 305.706 338.241 305.281 338.405C301.895 340.029 298.089 340.521 294.395 341.039C284.98 342.173 275.492 342.584 266.015 342.27C262.104 342.124 258.169 341.989 254.306 341.331C256.737 340.653 259.294 341.039 261.779 340.772C268.68 340.466 275.608 340.263 282.435 339.127C289.407 338.11 296.47 336.754 302.847 333.617C303.863 333.238 303.896 332.037 304.16 331.146C306.531 320.15 308.275 308.934 308.153 297.653C308.214 292.262 307.692 286.881 307.049 281.514Z" fill="#F9C291"/>
<path d="M101.152 285.244C105.995 284.237 110.906 283.592 115.845 283.315C119.569 283.911 122.986 285.688 126.105 287.763C125.482 290.93 124.774 294.08 123.924 297.196C118.022 295.734 111.717 295.063 105.754 296.541C99.5335 298.182 94.6472 303.044 91.6538 308.581C96.9769 306.069 102.574 303.936 108.443 303.156C118.408 301.8 128.421 303.875 138.031 306.445C142.142 307.642 146.361 308.374 150.519 309.388C152.764 309.968 155.094 309.646 157.373 309.544C156.154 310.053 154.833 310.192 153.536 310.327C161.216 314.359 169.113 318.383 175.353 324.568C176.264 325.507 177.565 327.013 176.488 328.298C175.238 329.545 173.488 330.088 171.903 330.776C161.413 335.02 150.712 338.722 139.843 341.867C132.125 344.033 124.351 346.146 116.39 347.166C108.94 348.329 101.308 346.803 94.3424 344.115C86.1648 341.063 78.9793 335.601 73.47 328.857C69.4777 323.893 66.1017 318.305 64.3646 312.138C64.1851 311.27 63.7178 310.266 64.3138 309.453C68.2817 303.364 73.4709 298.168 79.5516 294.195C86.0937 289.838 93.5975 287.214 101.152 285.244Z" fill="#F9C291"/>
<path d="M57.8495 313.959C59.1532 315.271 58.5979 317.261 59.4918 318.733C59.7221 317.004 59.4309 315.115 60.4434 313.582C61.0948 315.09 61.6292 316.645 62.0416 318.234C64.9944 330.362 69.2068 342.307 75.5491 353.079C76.3754 354.887 78.5696 354.754 80.2254 355.063C94.0351 357.135 108.051 357.451 121.94 356.005C123.609 355.734 125.299 355.494 126.999 355.687C111.879 359.325 96.1845 360.162 80.6826 359.149C78.6509 358.908 76.6192 358.715 74.6348 358.203C73.5648 357.931 73.2228 356.765 72.7217 355.931C65.9324 342.687 60.6838 328.586 57.8495 313.959Z" fill="#F9C291"/>
</g>
<defs>
<clipPath id="clip0_3_28">
<rect width="343" height="392" fill="white"/>
</clipPath>
</defs>
</svg>
