<svg width="113" height="113" viewBox="0 0 113 113" fill="none" xmlns="http://www.w3.org/2000/svg">
<path d="M68.3256 56.1497H77.6984V42.0466L68.3256 56.1497ZM68.3256 56.1497H77.6984V42.0466L68.3256 56.1497ZM68.3256 56.1497H77.6984V42.0466L68.3256 56.1497ZM68.3256 56.1497H77.6984V42.0466L68.3256 56.1497ZM68.3256 56.1497H77.6984V42.0466L68.3256 56.1497ZM68.3256 56.1497H77.6984V42.0466L68.3256 56.1497ZM68.3256 56.1497H77.6984V42.0466L68.3256 56.1497ZM68.3256 56.1497H77.6984V42.0466L68.3256 56.1497ZM68.3256 56.1497H77.6984V42.0466L68.3256 56.1497ZM68.3256 56.1497H77.6984V42.0466L68.3256 56.1497ZM68.3256 56.1497H77.6984V42.0466L68.3256 56.1497ZM68.3256 56.1497H77.6984V42.0466L68.3256 56.1497ZM60.9674 11.8257C51.3226 11.8807 41.9907 15.2547 34.5408 21.3805C27.0909 27.5063 21.9773 36.0104 20.0597 45.4629V45.7257C20.9551 45.2565 21.8939 44.8751 22.8628 44.5869L24.7023 44.0613C26.5875 43.4975 28.6145 43.6508 30.3934 44.4917C32.1722 45.3326 33.5773 46.8018 34.338 48.6164L37.5791 56.5001C38.1005 57.7568 38.3469 59.1106 38.3017 60.4704C38.2563 61.8303 37.9203 63.1647 37.3163 64.3838C36.7517 65.531 35.9657 66.555 35.0035 67.3969C34.0414 68.2388 32.9221 68.8819 31.7101 69.2893C35.3898 74.5264 39.885 79.14 45.0248 82.9544C45.4142 81.688 46.0578 80.5143 46.9164 79.5051C47.7748 78.496 48.8302 77.6726 50.0178 77.0854C51.237 76.4814 52.5714 76.1454 53.9312 76.1001C55.2911 76.0547 56.6449 76.3011 57.9016 76.8226L65.7853 80.0637C67.6127 80.8083 69.0944 82.2112 69.9377 83.9952C70.7811 85.7792 70.9248 87.8142 70.3403 89.6993L69.8147 91.5389C69.5556 92.421 69.2033 93.2724 68.7636 94.0792C70.3603 93.7516 71.939 93.3425 73.4938 92.8528C76.0305 92.0846 78.4701 91.0264 80.7643 89.6993C88.8565 85.2943 95.2511 78.319 98.9381 69.8752C102.625 61.4314 103.394 52 101.124 43.0704C98.854 34.1408 93.6735 26.2218 86.4021 20.5638C79.1304 14.9059 70.1811 11.8313 60.9674 11.8257ZM63.5953 66.9241H46.3388C46.0028 66.9185 45.6756 66.8165 45.396 66.6302C45.1164 66.4438 44.8964 66.1809 44.762 65.873C44.6301 65.5574 44.5849 65.2124 44.6311 64.8736C44.6773 64.5348 44.8133 64.2145 45.0248 63.9458L56.7628 50.7187C56.7744 50.7187 56.7857 50.7164 56.7963 50.7121C56.8069 50.7077 56.8166 50.7012 56.8247 50.693C56.8329 50.6849 56.8394 50.6753 56.8437 50.6647C56.8482 50.654 56.8504 50.6426 56.8504 50.6311C57.814 49.6675 60.4419 46.5141 60.4419 44.1489C60.4419 42.5227 59.7958 40.963 58.646 39.8132C57.496 38.6632 55.9363 38.0172 54.3101 38.0172C52.6838 38.0172 51.1242 38.6632 49.9743 39.8132C48.8243 40.963 48.1783 42.5227 48.1783 44.1489V44.8497C48.1783 45.3143 47.9937 45.7599 47.6652 46.0885C47.3367 46.4171 46.8911 46.6017 46.4264 46.6017C45.9617 46.6017 45.5161 46.4171 45.1876 46.0885C44.859 45.7599 44.6744 45.3143 44.6744 44.8497V44.1489C44.6744 41.5934 45.6897 39.1425 47.4967 37.3355C49.3037 35.5284 51.7545 34.5133 54.3101 34.5133C56.8656 34.5133 59.3165 35.5284 61.1235 37.3355C62.9306 39.1425 63.9457 41.5934 63.9457 44.1489C63.9457 48.266 60.0039 52.383 59.3907 52.9962L50.193 63.4203H63.5953C64.0601 63.4203 64.5057 63.6048 64.8342 63.9334C65.1627 64.262 65.3473 64.7076 65.3473 65.1722C65.3473 65.6368 65.1627 66.0824 64.8342 66.411C64.5057 66.7396 64.0601 66.9241 63.5953 66.9241ZM83.7426 59.6536H81.2023V65.0846C81.2023 65.5492 81.0178 65.9948 80.6893 66.3234C80.3607 66.652 79.9151 66.8365 79.4504 66.8365C78.9858 66.8365 78.5402 66.652 78.2116 66.3234C77.8831 65.9948 77.6984 65.5492 77.6984 65.0846V59.6536H64.9969C64.6727 59.6454 64.3563 59.5522 64.0795 59.383C63.8028 59.2139 63.5754 58.9749 63.4202 58.69C63.2626 58.4055 63.1873 58.0827 63.2027 57.7578C63.2182 57.4329 63.3239 57.1187 63.5078 56.8505L77.9612 35.3893C78.1772 35.1002 78.477 34.8849 78.8199 34.7727C79.1627 34.6604 79.5319 34.6568 79.8768 34.7621C80.2219 34.8676 80.5259 35.077 80.7474 35.3617C80.969 35.6463 81.0973 35.9925 81.1147 36.3528V56.2373H83.655C84.1197 56.2373 84.5653 56.4219 84.8938 56.7505C85.2224 57.0789 85.407 57.5245 85.407 57.9893C85.4143 58.2097 85.3763 58.4295 85.2952 58.6348C85.2142 58.84 85.0919 59.0263 84.9358 59.1824C84.7798 59.3384 84.5934 59.4608 84.3881 59.5418C84.1829 59.6228 83.9632 59.6609 83.7426 59.6536ZM77.6984 56.1497V42.0466L68.3256 56.1497H77.6984ZM68.3256 56.1497H77.6984V42.0466L68.3256 56.1497ZM68.3256 56.1497H77.6984V42.0466L68.3256 56.1497ZM68.3256 56.1497H77.6984V42.0466L68.3256 56.1497ZM68.3256 56.1497H77.6984V42.0466L68.3256 56.1497ZM68.3256 56.1497H77.6984V42.0466L68.3256 56.1497ZM68.3256 56.1497H77.6984V42.0466L68.3256 56.1497ZM68.3256 56.1497H77.6984V42.0466L68.3256 56.1497ZM68.3256 56.1497H77.6984V42.0466L68.3256 56.1497ZM68.3256 56.1497H77.6984V42.0466L68.3256 56.1497ZM68.3256 56.1497H77.6984V42.0466L68.3256 56.1497ZM68.3256 56.1497H77.6984V42.0466L68.3256 56.1497ZM68.3256 56.1497H77.6984V42.0466L68.3256 56.1497Z" fill="#C80003"/>
<path d="M67.0992 88.7357L66.5736 90.5752C66.1139 92.1581 65.3319 93.6288 64.2766 94.8955C63.2214 96.1613 61.9159 97.1958 60.4418 97.9333C58.8445 98.7524 57.0995 99.2447 55.3093 99.3796C53.5193 99.5153 51.7202 99.2911 50.0178 98.7217C24.7023 90.3124 15.855 64.7341 15.7674 64.4713V64.3837C15.1306 62.8314 14.8325 61.161 14.8929 59.4843C14.9533 57.8075 15.3709 56.1629 16.1178 54.6605C16.8848 53.0613 17.9727 51.6372 19.314 50.4769C20.6553 49.3164 22.2211 48.4445 23.9139 47.9155L25.7534 47.3899C26.8125 47.0604 27.9564 47.1382 28.961 47.6081C29.9656 48.078 30.7585 48.9062 31.1844 49.9302L34.4255 57.814C34.7655 58.6079 34.9261 59.467 34.8957 60.3301C34.8655 61.1932 34.6451 62.0389 34.2503 62.807C33.8697 63.5769 33.3289 64.2566 32.6641 64.8004C31.9994 65.3443 31.2261 65.7398 30.3961 65.9605L26.8046 66.924C26.5803 66.9874 26.3706 67.0942 26.1876 67.2384C26.0046 67.3828 25.8517 67.5617 25.7378 67.7651C25.624 67.9684 25.5513 68.1922 25.5239 68.4236C25.4965 68.6551 25.515 68.8896 25.5782 69.114C25.6415 69.3383 25.7484 69.548 25.8926 69.731C26.0369 69.914 26.2159 70.0668 26.4193 70.1807C26.6226 70.2946 26.8464 70.3673 27.0778 70.3947C27.3092 70.4221 27.5438 70.4036 27.7682 70.3403L28.2061 70.2527C32.4352 76.6243 37.8472 82.1255 44.1488 86.4582L44.0612 86.6334C43.9979 86.8577 43.9795 87.0923 44.0068 87.3237C44.0342 87.5551 44.1069 87.7791 44.2208 87.9823C44.3347 88.1856 44.4875 88.3643 44.6705 88.5088C44.8536 88.6533 45.0632 88.7602 45.2875 88.8233C45.5119 88.8863 45.7465 88.9047 45.9779 88.8776C46.2093 88.8504 46.4331 88.7777 46.6365 88.6638C46.8399 88.55 47.0188 88.3967 47.1631 88.2136C47.3074 88.0305 47.4142 87.8212 47.4775 87.5969L47.8279 86.1954L48.441 84.0054C48.6617 83.1754 49.0572 82.4021 49.6011 81.7374C50.145 81.0726 50.8246 80.5319 51.5945 80.1512C52.3691 79.7774 53.2131 79.5687 54.0726 79.5386C54.9322 79.5084 55.7887 79.6574 56.5875 79.976L64.4713 83.2171C65.5207 83.6409 66.3729 84.4431 66.8594 85.4649C67.346 86.4867 67.4316 87.6539 67.0992 88.7357Z" fill="#C80003"/>
</svg>
