<svg width="49" height="49" viewBox="0 0 49 49" fill="none" xmlns="http://www.w3.org/2000/svg">
<path fill-rule="evenodd" clip-rule="evenodd" d="M11.3105 0.756871C9.86925 0.754164 8.44171 1.03128 7.10966 1.57222C5.77761 2.11317 4.56735 2.90729 3.54824 3.90914C2.52914 4.91098 1.72125 6.10075 1.17099 7.41024C0.620725 8.71973 0.338835 10.1232 0.341588 11.54V37.4538C0.337917 38.8712 0.619096 40.2753 1.16895 41.5855C1.7188 42.8958 2.5265 44.0864 3.54569 45.089C4.56489 46.0916 5.77554 46.8864 7.10805 47.4277C8.44055 47.9691 9.86866 48.2465 11.3105 48.2438H37.8866C39.3287 48.2465 40.7572 47.9692 42.0901 47.4279C43.423 46.8866 44.6341 46.092 45.6538 45.0895C46.6736 44.087 47.4819 42.8964 48.0325 41.586C48.5831 40.2757 48.8652 38.8715 48.8624 37.4538V11.54C48.8652 10.1226 48.5831 8.71867 48.0324 7.40874C47.4817 6.0988 46.6732 4.90856 45.6534 3.90663C44.6335 2.90469 43.4224 2.11076 42.0896 1.57022C40.7567 1.02968 39.3284 0.753262 37.8866 0.756871H11.3105ZM27.1893 42.6433H18.9156V27.2662H14.2356V20.4198H18.9156C18.9156 16.3119 18.8111 12.8477 20.8169 10.0201C22.9062 7.04876 26.0401 6.59682 29.5154 6.35035C31.3505 6.31383 33.1836 6.49312 34.9755 6.88439V13.1079C32.7469 12.9298 29.8009 12.8476 28.4707 14.0937C26.9873 15.463 27.2172 18.0235 27.2172 20.4198H34.6411L33.3667 27.2662H27.1963L27.1893 42.6433Z" fill="white"/>
</svg>
