<svg width="49" height="49" viewBox="0 0 49 49" fill="none" xmlns="http://www.w3.org/2000/svg">
<path fill-rule="evenodd" clip-rule="evenodd" d="M10.9759 0.756856C9.53374 0.754149 8.10524 1.03142 6.77235 1.57271C5.43945 2.114 4.22838 2.90865 3.20863 3.91113C2.18888 4.91361 1.38054 6.10408 0.82993 7.4144C0.279317 8.72473 -0.0027331 10.1291 1.99613e-05 11.5468V37.4538C-0.0027331 38.8715 0.279317 40.2757 0.82993 41.586C1.38054 42.8964 2.18888 44.087 3.20863 45.0895C4.22838 46.092 5.43945 46.8866 6.77235 47.4279C8.10524 47.9692 9.53374 48.2465 10.9759 48.2438H37.552C38.9938 48.2465 40.422 47.9691 41.7545 47.4277C43.087 46.8864 44.2975 46.0915 45.3167 45.089C46.3359 44.0864 47.1436 42.8958 47.6935 41.5855C48.2433 40.2752 48.5245 38.8712 48.5208 37.4538V11.5468C48.5245 10.1294 48.2433 8.72536 47.6935 7.41507C47.1436 6.10479 46.3359 4.91403 45.3167 3.91146C44.2975 2.90889 43.087 2.11425 41.7545 1.57288C40.422 1.03151 38.9938 0.754146 37.552 0.756856H10.9759ZM18.7063 24.5002C18.7063 23.4169 19.0331 22.358 19.6453 21.4573C20.2575 20.5566 21.1277 19.8547 22.1457 19.4401C23.1638 19.0256 24.284 18.917 25.3648 19.1284C26.4456 19.3397 27.4383 19.8614 28.2175 20.6274C28.9967 21.3934 29.5273 22.3693 29.7423 23.4318C29.9573 24.4943 29.847 25.5955 29.4253 26.5963C29.0036 27.5971 28.2894 28.4525 27.3732 29.0544C26.457 29.6562 25.3798 29.9774 24.2778 29.9774C22.8002 29.9774 21.383 29.4004 20.3382 28.3732C19.2933 27.3461 18.7063 25.9528 18.7063 24.5002ZM15.7047 24.5002C15.7033 22.8357 16.2042 21.2083 17.1438 19.8237C18.0835 18.4391 19.4197 17.3595 20.9836 16.7216C22.5475 16.0837 24.2687 15.9162 25.9295 16.24C27.5903 16.5639 29.116 17.3647 30.3138 18.5412C31.5115 19.7177 32.3274 21.2169 32.6582 22.8493C32.989 24.4817 32.8199 26.1739 32.1722 27.7118C31.5246 29.2497 30.4276 30.5644 29.0199 31.4892C27.6122 32.4141 25.9571 32.9077 24.264 32.9077C23.1398 32.9104 22.0261 32.6948 20.9868 32.2733C19.9476 31.8519 19.0032 31.2329 18.208 30.4517C17.4127 29.6706 16.7822 28.7426 16.3526 27.7213C15.923 26.7001 15.7029 25.6054 15.7047 24.5002ZM31.1517 15.7232C31.1517 15.3346 31.2689 14.9547 31.4886 14.6316C31.7082 14.3084 32.0203 14.0565 32.3856 13.9078C32.7508 13.7591 33.1527 13.7202 33.5404 13.796C33.9281 13.8718 34.2843 14.0589 34.5638 14.3337C34.8433 14.6085 35.0337 14.9586 35.1109 15.3398C35.188 15.7209 35.1484 16.116 34.9971 16.4751C34.8458 16.8341 34.5896 17.141 34.2609 17.3569C33.9322 17.5728 33.5457 17.6881 33.1504 17.6881C32.8877 17.689 32.6274 17.6387 32.3844 17.5403C32.1415 17.4419 31.9208 17.2972 31.735 17.1146C31.5492 16.9319 31.4021 16.715 31.302 16.4762C31.2018 16.2374 31.1507 15.9815 31.1517 15.7232ZM17.5573 37.8576C16.4963 37.8476 15.4443 37.6648 14.4441 37.3167C13.7172 37.0501 13.0604 36.6268 12.522 36.0776C11.9469 35.5592 11.5135 34.9071 11.2614 34.1812C10.8838 33.2171 10.6834 32.1947 10.6695 31.1618C10.5929 29.4159 10.5929 28.9025 10.558 24.5002C10.5232 20.098 10.5581 19.6188 10.6695 17.9072C10.6846 16.8641 10.8727 15.8304 11.2266 14.8469C11.4952 14.131 11.9263 13.4847 12.4872 12.9572C13.0106 12.3906 13.6721 11.9641 14.4094 11.718C15.3925 11.3469 16.4346 11.1498 17.4876 11.136C19.2635 11.0607 19.7789 11.0607 24.264 11.0265C28.749 10.9923 29.2226 11.0607 30.9637 11.136C32.0249 11.1499 33.0765 11.335 34.0767 11.6837C34.8062 11.9459 35.4658 12.3673 36.0059 12.9161C36.5812 13.433 37.0127 14.0858 37.2594 14.8126C37.6394 15.7786 37.8422 16.8031 37.8583 17.8387C37.928 19.5845 37.928 20.0911 37.9628 24.5002C37.9977 28.9093 37.9628 29.375 37.8583 31.0866C37.8442 32.1298 37.656 33.1636 37.3013 34.1469C37.0321 34.8645 36.6011 35.5129 36.0407 36.0434C35.5149 36.609 34.8508 37.0332 34.1115 37.2758C33.1329 37.6539 32.0917 37.851 31.0403 37.8576C29.2644 37.9329 28.7421 37.933 24.264 37.9673C19.7859 38.0015 19.2984 37.9671 17.5573 37.8576ZM17.3344 8.1853C19.1521 8.11683 19.7092 8.07565 24.2987 8.07565C28.8883 8.07565 29.3688 8.07572 31.1517 8.15103C32.5308 8.17527 33.8952 8.43464 35.1841 8.91774C36.3069 9.33646 37.3291 9.97994 38.1857 10.8074C39.0332 11.633 39.6909 12.6275 40.1148 13.7239C40.6036 15.0057 40.8651 16.3605 40.8879 17.7292C40.9645 19.475 40.9993 20.0227 40.9993 24.5002C40.9993 28.9778 40.9993 29.4845 40.9297 31.2372C40.9015 32.5926 40.6377 33.9333 40.1497 35.2013C39.7184 36.3041 39.0619 37.3084 38.2205 38.1521C37.3826 38.9844 36.3735 39.6309 35.2607 40.0484C33.968 40.5259 32.602 40.783 31.2214 40.8085C29.4106 40.8838 28.8534 40.9179 24.2987 40.9179C19.744 40.9179 19.2217 40.918 17.4458 40.8496C16.0644 40.8252 14.6978 40.5656 13.4064 40.0827C12.2876 39.6569 11.2688 39.0116 10.4118 38.1862C9.56518 37.3625 8.90743 36.3705 8.48267 35.2765C7.99759 34.0053 7.7339 32.663 7.70266 31.3057C7.63301 29.5256 7.5912 28.9778 7.5912 24.5002C7.5912 20.0227 7.59119 19.5093 7.6678 17.7634C7.69264 16.4055 7.95654 15.0619 8.44781 13.7925C8.87715 12.6903 9.53128 11.6861 10.37 10.8416C11.2105 10.011 12.2221 9.36671 13.3368 8.95201C14.6165 8.48094 15.9682 8.22641 17.3344 8.199V8.1853Z" fill="white"/>
</svg>
