<svg width="49" height="49" viewBox="0 0 49 49" fill="none" xmlns="http://www.w3.org/2000/svg">
<path fill-rule="evenodd" clip-rule="evenodd" d="M11.1111 0.756856C9.66928 0.754146 8.24117 1.03151 6.90867 1.57288C5.57616 2.11425 4.36551 2.90889 3.34631 3.91146C2.32711 4.91403 1.51946 6.10479 0.969607 7.41507C0.419755 8.72536 0.138576 10.1294 0.142247 11.5468V37.4538C0.138576 38.8712 0.419755 40.2752 0.969607 41.5855C1.51946 42.8958 2.32711 44.0864 3.34631 45.089C4.36551 46.0915 5.57616 46.8864 6.90867 47.4277C8.24117 47.9691 9.66928 48.2465 11.1111 48.2438H37.6872C39.129 48.2465 40.5572 47.9691 41.8897 47.4277C43.2222 46.8864 44.4328 46.0915 45.452 45.089C46.4712 44.0864 47.2789 42.8958 47.8287 41.5855C48.3786 40.2752 48.6597 38.8712 48.6561 37.4538V11.5468C48.6597 10.1294 48.3786 8.72536 47.8287 7.41507C47.2789 6.10479 46.4712 4.91403 45.452 3.91146C44.4328 2.90889 43.2222 2.11425 41.8897 1.57288C40.5572 1.03151 39.129 0.754146 37.6872 0.756856H11.1111ZM17.4557 40.2127L17.2607 38.7134C17.0401 36.843 17.1058 34.9506 17.4557 33.0994C17.8318 31.6069 19.74 23.7472 19.74 23.7472C19.3488 22.8645 19.1542 21.9097 19.1689 20.947C19.1689 18.3248 20.6872 16.2708 22.5885 16.2708C22.9314 16.2647 23.2718 16.3297 23.5875 16.4613C23.9033 16.593 24.1873 16.7885 24.4211 17.0352C24.6549 17.2818 24.8334 17.5741 24.9448 17.893C25.0562 18.2119 25.0981 18.5503 25.0677 18.8862C25.0677 20.5704 24.1136 22.9941 23.5426 25.2465C22.9715 27.1156 24.4897 28.6149 26.3979 28.6149C29.8244 28.6149 32.4848 25.0618 32.4848 20.0091C32.4848 15.333 29.2533 12.1561 24.3017 12.1561C23.1576 12.1151 22.0171 12.3034 20.9494 12.7094C19.8817 13.1153 18.9092 13.7305 18.0909 14.5176C17.2727 15.3046 16.6259 16.2472 16.1899 17.2877C15.7538 18.3283 15.5376 19.4451 15.5544 20.5704C15.5544 22.2546 16.1185 23.9388 17.0726 24.6782C17.1161 24.7115 17.1512 24.7541 17.1753 24.8028C17.1995 24.8514 17.2121 24.9049 17.2121 24.959C17.2121 25.0132 17.1995 25.0665 17.1753 25.1152C17.1512 25.1638 17.1161 25.2064 17.0726 25.2397C17.0726 25.8011 16.6896 27.1088 16.6896 27.4853C16.5015 27.855 16.3135 27.8551 15.9305 27.6702C13.4581 26.5474 11.9329 23.3706 11.9329 20.5635C11.9329 14.4017 16.5015 8.78085 24.8727 8.78085C31.7256 8.78085 36.8584 13.6419 36.8584 20.0022C36.8584 26.3626 32.6798 31.7849 26.774 31.7849C24.8728 31.7849 22.9715 30.6621 22.4004 29.5393C22.4004 29.5393 21.2582 33.0926 21.0702 34.0306C20.5191 36.4034 19.2606 38.5605 17.4557 40.2264V40.2127Z" fill="white"/>
</svg>
