<svg width="102" height="101" viewBox="0 0 102 101" fill="none" xmlns="http://www.w3.org/2000/svg">
<path d="M50.6016 18.8964C31.9045 18.8964 16.696 33.9517 16.696 52.4602C16.696 70.9688 31.9045 86.0241 50.6016 86.0241C69.2986 86.0241 84.5072 70.9688 84.5072 52.4602C84.5072 33.9765 69.2986 18.8964 50.6016 18.8964ZM71.0554 66.6211C70.4028 69.8011 67.6422 72.0371 64.3545 72.0371H40.0861C39.0069 74.3724 36.949 75.391 35.1169 75.391C34.9161 75.391 34.7154 75.391 34.5397 75.3661C32.2559 75.0929 29.8215 73.0805 29.8215 69.3043V44.4109C29.8215 40.5104 32.3312 38.5974 34.8158 38.4235C37.1497 38.2496 39.2077 39.5167 40.1112 41.5042H42.5455C42.671 41.5042 42.7463 41.4545 42.7965 41.3303L47.6903 29.7531C48.4182 28.014 49.8989 26.7967 51.756 26.3743C53.6383 25.9768 55.4703 26.4737 56.8757 27.7656C61.092 31.6412 59.9626 35.6659 57.9047 41.5042H67.8932C69.9762 41.5042 71.8584 42.3985 73.1886 43.9885C74.5187 45.6034 75.0206 47.6157 74.594 49.6281L71.0554 66.6211ZM70.453 46.1748C71.1055 46.9698 71.3565 47.9138 71.1306 48.9076L67.6171 65.9007C67.2908 67.441 65.9607 68.5341 64.3545 68.5341H40.588L40.5629 44.9574H42.5204C44.0764 44.9574 45.4066 44.0631 46.0089 42.647L50.9027 31.045C51.2039 30.3493 51.7309 29.9021 52.4587 29.7531C53.2116 29.604 53.8892 29.7779 54.4664 30.2996C57.1016 32.7343 56.4993 34.9206 54.1904 41.4048C54.0398 41.8023 53.8892 42.2246 53.7386 42.647C53.563 43.1687 53.6383 43.7649 53.9645 44.237C54.2908 44.6842 54.8178 44.9574 55.395 44.9574H67.843C68.9221 44.9823 69.8005 45.3798 70.453 46.1748ZM37.0494 43.3923L37.0996 70.0496C36.6478 71.5402 35.6941 71.9874 34.9914 71.9129C34.2385 71.8135 33.3351 71.093 33.3351 69.3043V44.4109C33.3351 42.8954 33.9625 41.9762 35.0416 41.9017H35.1671C35.8698 41.8768 36.8235 42.2743 37.0494 43.3923ZM50.6016 7.89062C25.7809 7.89062 5.57812 27.8898 5.57812 52.4602C5.57812 77.0555 25.7558 97.0547 50.6016 97.0547C75.4222 97.0547 95.625 77.0555 95.625 52.4851C95.625 27.8898 75.4222 7.89062 50.6016 7.89062ZM50.6016 89.5022C29.9721 89.5022 13.1824 72.8818 13.1824 52.4602C13.1824 32.0387 29.947 15.4183 50.6016 15.4183C71.2561 15.4183 88.0207 32.0387 88.0207 52.4602C88.0207 72.8818 71.231 89.5022 50.6016 89.5022Z" fill="#C80003"/>
</svg>
