<svg width="133" height="133" viewBox="0 0 133 133" fill="none" xmlns="http://www.w3.org/2000/svg">
<circle cx="66.5" cy="66.5" r="65" fill="white" stroke="black" stroke-width="3"/>
<path fill-rule="evenodd" clip-rule="evenodd" d="M32.5237 75.6468C33.3929 79.2592 34.841 82.7096 36.8093 85.8716L33.8259 92.5157L41.7428 100.347L48.4579 97.3968C51.6552 99.3443 55.1448 100.777 58.7978 101.636L61.4356 108.415H72.6316L75.2703 101.635C78.9225 100.775 82.4107 99.3427 85.6074 97.3958L92.3246 100.347L100.241 92.5161L97.3079 85.9825H96.7884C96.4574 85.9825 96.1302 85.9532 95.8097 85.8958L92.6917 86.4096C88.4245 87.1128 83.7825 87.8034 79.5429 86.6119C78.8001 86.4031 78.0858 86.1425 77.3973 85.8331C74.332 87.5319 70.7977 88.5016 67.0338 88.5016C55.3063 88.5016 45.8012 79.0998 45.8012 67.4999C45.8012 55.8998 55.3063 46.4981 67.0338 46.4981C70.7442 46.4981 74.2315 47.4403 77.2663 49.0943C79.7697 47.2126 82.0715 45.1184 82.0715 41.753V35.7134C79.8944 34.7042 77.6158 33.916 75.2696 33.3637L72.632 26.585H61.4358L58.7976 33.3648C55.1451 34.2243 51.6563 35.6567 48.4597 37.6038L41.7431 34.6534L33.8261 42.4842L36.8095 49.1284C34.8412 52.2905 33.3931 55.7409 32.5239 59.3533L25.6692 61.9632V73.0374L32.5237 75.6468ZM72.9974 80.3738H64.3918V54.6263H72.9974V80.3738ZM91.2255 55.9929C91.2255 59.5607 93.6827 59.776 87.2826 63.4115C86.5973 63.8011 86.361 64.6665 86.7547 65.3444C87.1485 66.0223 88.0234 66.256 88.7088 65.8666C88.9734 65.7162 89.2804 65.534 89.614 65.3211C89.8448 66.3692 90.3792 67.3078 91.1204 68.041C91.4905 68.4071 91.9124 68.7221 92.374 68.9743C91.6578 69.8994 91.231 71.0582 91.2309 72.3144C91.231 73.8765 91.8943 75.3482 93.0639 76.395C91.8945 77.4394 91.2309 78.9155 91.231 80.4751C91.231 81.6382 91.5967 82.7174 92.2188 83.605C87.3976 84.3995 83.6725 84.8168 80.3283 83.8767C78.7852 83.4431 77.3232 82.7204 75.8723 81.6124V53.5855C77.1962 52.6559 78.5615 51.7322 79.818 50.7302C82.6594 48.4644 84.9459 45.7975 84.9459 41.7533V33.9368C90.1411 33.9368 94.4241 38.1365 94.4241 43.3105V49.3737C94.1833 51.1004 93.9055 51.0698 92.8583 52.1057C91.851 53.1024 91.2255 54.4782 91.2255 55.9929ZM105.9 58.6513H96.7881C95.3127 58.6513 94.1005 57.4523 94.1005 55.9927C94.1005 54.5374 95.3161 53.3288 96.7881 53.3288L105.9 53.329C107.368 53.329 108.593 54.5404 108.593 55.9925C108.593 57.4528 107.374 58.6513 105.9 58.6513ZM107.638 66.8176C103.442 66.8176 99.2462 66.8121 95.0503 66.8121C93.5749 66.8121 92.3625 65.6131 92.3625 64.1537C92.3625 62.6944 93.5749 61.495 95.0503 61.495C99.2462 61.495 103.442 61.4895 107.638 61.4895C109.11 61.4897 110.331 62.6985 110.331 64.1539C110.331 65.606 109.106 66.8176 107.638 66.8176ZM104.743 74.973C102.091 74.973 99.4426 74.9701 96.7882 74.9785C95.3164 74.9785 94.0949 73.7701 94.0947 72.3142C94.0949 70.8581 95.317 69.6559 96.7882 69.6559H104.743C106.218 69.6559 107.43 70.8549 107.43 72.3142C107.43 73.7736 106.218 74.973 104.743 74.973ZM96.7881 83.139C95.3198 83.139 94.0949 81.927 94.0949 80.4747C94.0949 79.0756 95.2363 77.8896 96.6465 77.8148C98.4906 77.8603 100.424 77.8149 102.282 77.8165C103.758 77.8165 104.976 79.0161 104.976 80.4754C104.976 81.9311 103.754 83.139 102.282 83.139H96.7881ZM97.2991 49.0369V43.3107C97.2991 41.6826 96.9697 40.1002 96.3565 38.6416L100.241 42.4844L97.2991 49.0369Z" fill="url(#paint0_linear_409_83)"/>
<defs>
<linearGradient id="paint0_linear_409_83" x1="68.0001" y1="26.585" x2="68.0001" y2="108.415" gradientUnits="userSpaceOnUse">
<stop stop-color="#C98509"/>
<stop offset="1" stop-color="#634204"/>
</linearGradient>
</defs>
</svg>
