<svg width="133" height="133" viewBox="0 0 133 133" fill="none" xmlns="http://www.w3.org/2000/svg">
<circle cx="66.5" cy="66.5" r="65" fill="white" stroke="black" stroke-width="3"/>
<path d="M75.3256 70.1497H84.6984V56.0466L75.3256 70.1497ZM75.3256 70.1497H84.6984V56.0466L75.3256 70.1497ZM75.3256 70.1497H84.6984V56.0466L75.3256 70.1497ZM75.3256 70.1497H84.6984V56.0466L75.3256 70.1497ZM75.3256 70.1497H84.6984V56.0466L75.3256 70.1497ZM75.3256 70.1497H84.6984V56.0466L75.3256 70.1497ZM75.3256 70.1497H84.6984V56.0466L75.3256 70.1497ZM75.3256 70.1497H84.6984V56.0466L75.3256 70.1497ZM75.3256 70.1497H84.6984V56.0466L75.3256 70.1497ZM75.3256 70.1497H84.6984V56.0466L75.3256 70.1497ZM75.3256 70.1497H84.6984V56.0466L75.3256 70.1497ZM75.3256 70.1497H84.6984V56.0466L75.3256 70.1497ZM67.9674 25.8257C58.3226 25.8807 48.9907 29.2547 41.5408 35.3805C34.0909 41.5063 28.9773 50.0104 27.0597 59.4629V59.7257C27.9551 59.2565 28.8939 58.8751 29.8628 58.5869L31.7023 58.0613C33.5875 57.4975 35.6145 57.6508 37.3934 58.4917C39.1722 59.3326 40.5773 60.8018 41.338 62.6164L44.5791 70.5001C45.1005 71.7568 45.3469 73.1106 45.3017 74.4704C45.2563 75.8303 44.9203 77.1647 44.3163 78.3838C43.7517 79.531 42.9657 80.555 42.0035 81.3969C41.0414 82.2388 39.9221 82.8819 38.7101 83.2893C42.3898 88.5264 46.885 93.14 52.0248 96.9544C52.4142 95.688 53.0578 94.5143 53.9164 93.5051C54.7748 92.496 55.8302 91.6726 57.0178 91.0854C58.237 90.4814 59.5714 90.1454 60.9312 90.1001C62.2911 90.0547 63.6449 90.3011 64.9016 90.8226L72.7853 94.0637C74.6127 94.8083 76.0944 96.2112 76.9377 97.9952C77.7811 99.7792 77.9248 101.814 77.3403 103.699L76.8147 105.539C76.5556 106.421 76.2033 107.272 75.7636 108.079C77.3603 107.752 78.939 107.342 80.4938 106.853C83.0305 106.085 85.4701 105.026 87.7643 103.699C95.8565 99.2943 102.251 92.319 105.938 83.8752C109.625 75.4314 110.394 66 108.124 57.0704C105.854 48.1408 100.673 40.2218 93.4021 34.5638C86.1304 28.9059 77.1811 25.8313 67.9674 25.8257ZM70.5953 80.9241H53.3388C53.0028 80.9185 52.6756 80.8165 52.396 80.6302C52.1164 80.4438 51.8964 80.1809 51.762 79.873C51.6301 79.5574 51.5849 79.2124 51.6311 78.8736C51.6773 78.5348 51.8133 78.2145 52.0248 77.9458L63.7628 64.7187C63.7744 64.7187 63.7857 64.7164 63.7963 64.7121C63.8069 64.7077 63.8166 64.7012 63.8247 64.693C63.8329 64.6849 63.8394 64.6753 63.8437 64.6647C63.8482 64.654 63.8504 64.6426 63.8504 64.6311C64.814 63.6675 67.4419 60.5141 67.4419 58.1489C67.4419 56.5227 66.7958 54.963 65.646 53.8132C64.496 52.6632 62.9363 52.0172 61.3101 52.0172C59.6838 52.0172 58.1242 52.6632 56.9743 53.8132C55.8243 54.963 55.1783 56.5227 55.1783 58.1489V58.8497C55.1783 59.3143 54.9937 59.7599 54.6652 60.0885C54.3367 60.4171 53.8911 60.6017 53.4264 60.6017C52.9617 60.6017 52.5161 60.4171 52.1876 60.0885C51.859 59.7599 51.6744 59.3143 51.6744 58.8497V58.1489C51.6744 55.5934 52.6897 53.1425 54.4967 51.3355C56.3037 49.5284 58.7545 48.5133 61.3101 48.5133C63.8656 48.5133 66.3165 49.5284 68.1235 51.3355C69.9306 53.1425 70.9457 55.5934 70.9457 58.1489C70.9457 62.266 67.0039 66.383 66.3907 66.9962L57.193 77.4203H70.5953C71.0601 77.4203 71.5057 77.6048 71.8342 77.9334C72.1627 78.262 72.3473 78.7076 72.3473 79.1722C72.3473 79.6368 72.1627 80.0824 71.8342 80.411C71.5057 80.7396 71.0601 80.9241 70.5953 80.9241ZM90.7426 73.6536H88.2023V79.0846C88.2023 79.5492 88.0178 79.9948 87.6893 80.3234C87.3607 80.652 86.9151 80.8365 86.4504 80.8365C85.9858 80.8365 85.5402 80.652 85.2116 80.3234C84.8831 79.9948 84.6984 79.5492 84.6984 79.0846V73.6536H71.9969C71.6727 73.6454 71.3563 73.5522 71.0795 73.383C70.8028 73.2139 70.5754 72.9749 70.4202 72.69C70.2626 72.4055 70.1873 72.0827 70.2027 71.7578C70.2182 71.4329 70.3239 71.1187 70.5078 70.8505L84.9612 49.3893C85.1772 49.1002 85.477 48.8849 85.8199 48.7727C86.1627 48.6604 86.5319 48.6568 86.8768 48.7621C87.2219 48.8676 87.5259 49.077 87.7474 49.3617C87.969 49.6463 88.0973 49.9925 88.1147 50.3528V70.2373H90.655C91.1197 70.2373 91.5653 70.4219 91.8938 70.7505C92.2224 71.0789 92.407 71.5245 92.407 71.9893C92.4143 72.2097 92.3763 72.4295 92.2952 72.6348C92.2142 72.84 92.0919 73.0263 91.9358 73.1824C91.7798 73.3384 91.5934 73.4608 91.3881 73.5418C91.1829 73.6228 90.9632 73.6609 90.7426 73.6536ZM84.6984 70.1497V56.0466L75.3256 70.1497H84.6984ZM75.3256 70.1497H84.6984V56.0466L75.3256 70.1497ZM75.3256 70.1497H84.6984V56.0466L75.3256 70.1497ZM75.3256 70.1497H84.6984V56.0466L75.3256 70.1497ZM75.3256 70.1497H84.6984V56.0466L75.3256 70.1497ZM75.3256 70.1497H84.6984V56.0466L75.3256 70.1497ZM75.3256 70.1497H84.6984V56.0466L75.3256 70.1497ZM75.3256 70.1497H84.6984V56.0466L75.3256 70.1497ZM75.3256 70.1497H84.6984V56.0466L75.3256 70.1497ZM75.3256 70.1497H84.6984V56.0466L75.3256 70.1497ZM75.3256 70.1497H84.6984V56.0466L75.3256 70.1497ZM75.3256 70.1497H84.6984V56.0466L75.3256 70.1497ZM75.3256 70.1497H84.6984V56.0466L75.3256 70.1497Z" fill="url(#paint0_linear_409_84)"/>
<path d="M74.0992 102.736L73.5736 104.575C73.1139 106.158 72.3319 107.629 71.2766 108.895C70.2214 110.161 68.9159 111.196 67.4418 111.933C65.8445 112.752 64.0995 113.245 62.3093 113.38C60.5193 113.515 58.7202 113.291 57.0178 112.722C31.7023 104.312 22.855 78.7341 22.7674 78.4713V78.3837C22.1306 76.8314 21.8325 75.161 21.8929 73.4843C21.9533 71.8075 22.3709 70.1629 23.1178 68.6605C23.8848 67.0613 24.9727 65.6372 26.314 64.4769C27.6553 63.3164 29.2211 62.4445 30.9139 61.9155L32.7534 61.3899C33.8125 61.0604 34.9564 61.1382 35.961 61.6081C36.9656 62.078 37.7585 62.9062 38.1844 63.9302L41.4255 71.814C41.7655 72.6079 41.9261 73.467 41.8957 74.3301C41.8655 75.1932 41.6451 76.0389 41.2503 76.807C40.8697 77.5769 40.3289 78.2566 39.6641 78.8004C38.9994 79.3443 38.2261 79.7398 37.3961 79.9605L33.8046 80.924C33.5803 80.9874 33.3706 81.0942 33.1876 81.2384C33.0046 81.3828 32.8517 81.5617 32.7378 81.7651C32.624 81.9684 32.5513 82.1922 32.5239 82.4236C32.4965 82.6551 32.515 82.8896 32.5782 83.114C32.6415 83.3383 32.7484 83.548 32.8926 83.731C33.0369 83.914 33.2159 84.0668 33.4193 84.1807C33.6226 84.2946 33.8464 84.3673 34.0778 84.3947C34.3092 84.4221 34.5438 84.4036 34.7682 84.3403L35.2061 84.2527C39.4352 90.6243 44.8472 96.1255 51.1488 100.458L51.0612 100.633C50.9979 100.858 50.9795 101.092 51.0068 101.324C51.0342 101.555 51.1069 101.779 51.2208 101.982C51.3347 102.186 51.4875 102.364 51.6705 102.509C51.8536 102.653 52.0632 102.76 52.2875 102.823C52.5119 102.886 52.7465 102.905 52.9779 102.878C53.2093 102.85 53.4331 102.778 53.6365 102.664C53.8399 102.55 54.0188 102.397 54.1631 102.214C54.3074 102.031 54.4142 101.821 54.4775 101.597L54.8279 100.195L55.441 98.0054C55.6617 97.1754 56.0572 96.4021 56.6011 95.7374C57.145 95.0726 57.8246 94.5319 58.5945 94.1512C59.3691 93.7774 60.2131 93.5687 61.0726 93.5386C61.9322 93.5084 62.7887 93.6574 63.5875 93.976L71.4713 97.2171C72.5207 97.6409 73.3729 98.4431 73.8594 99.4649C74.346 100.487 74.4316 101.654 74.0992 102.736Z" fill="url(#paint1_linear_409_84)"/>
<defs>
<linearGradient id="paint0_linear_409_84" x1="68.2309" y1="25.8257" x2="68.2309" y2="108.079" gradientUnits="userSpaceOnUse">
<stop stop-color="#C98509"/>
<stop offset="1" stop-color="#634204"/>
</linearGradient>
<linearGradient id="paint1_linear_409_84" x1="48.0919" y1="61.189" x2="48.0919" y2="113.418" gradientUnits="userSpaceOnUse">
<stop stop-color="#C98509"/>
<stop offset="1" stop-color="#634204"/>
</linearGradient>
</defs>
</svg>
