<svg width="133" height="133" viewBox="0 0 133 133" fill="none" xmlns="http://www.w3.org/2000/svg">
<circle cx="66.5" cy="66.5" r="65" fill="white" stroke="black" stroke-width="3"/>
<path d="M66.6016 34.8964C47.9045 34.8964 32.696 49.9517 32.696 68.4602C32.696 86.9688 47.9045 102.024 66.6016 102.024C85.2986 102.024 100.507 86.9688 100.507 68.4602C100.507 49.9765 85.2986 34.8964 66.6016 34.8964ZM87.0554 82.6211C86.4028 85.8011 83.6422 88.0371 80.3545 88.0371H56.0861C55.0069 90.3724 52.949 91.391 51.1169 91.391C50.9161 91.391 50.7154 91.391 50.5397 91.3661C48.2559 91.0929 45.8215 89.0805 45.8215 85.3043V60.4109C45.8215 56.5104 48.3312 54.5974 50.8158 54.4235C53.1497 54.2496 55.2077 55.5167 56.1112 57.5042H58.5455C58.671 57.5042 58.7463 57.4545 58.7965 57.3303L63.6903 45.7531C64.4182 44.014 65.8989 42.7967 67.756 42.3743C69.6383 41.9768 71.4703 42.4737 72.8757 43.7656C77.092 47.6412 75.9626 51.6659 73.9047 57.5042H83.8932C85.9762 57.5042 87.8584 58.3985 89.1886 59.9885C90.5187 61.6034 91.0206 63.6157 90.594 65.6281L87.0554 82.6211ZM86.453 62.1748C87.1055 62.9698 87.3565 63.9138 87.1306 64.9076L83.6171 81.9007C83.2908 83.441 81.9607 84.5341 80.3545 84.5341H56.588L56.5629 60.9574H58.5204C60.0764 60.9574 61.4066 60.0631 62.0089 58.647L66.9027 47.045C67.2039 46.3493 67.7309 45.9021 68.4587 45.7531C69.2116 45.604 69.8892 45.7779 70.4664 46.2996C73.1016 48.7343 72.4993 50.9206 70.1904 57.4048C70.0398 57.8023 69.8892 58.2246 69.7386 58.647C69.563 59.1687 69.6383 59.7649 69.9645 60.237C70.2908 60.6842 70.8178 60.9574 71.395 60.9574H83.843C84.9221 60.9823 85.8005 61.3798 86.453 62.1748ZM53.0494 59.3923L53.0996 86.0496C52.6478 87.5402 51.6941 87.9874 50.9914 87.9129C50.2385 87.8135 49.3351 87.093 49.3351 85.3043V60.4109C49.3351 58.8954 49.9625 57.9762 51.0416 57.9017H51.1671C51.8698 57.8768 52.8235 58.2743 53.0494 59.3923ZM66.6016 23.8906C41.7809 23.8906 21.5781 43.8898 21.5781 68.4602C21.5781 93.0555 41.7558 113.055 66.6016 113.055C91.4222 113.055 111.625 93.0555 111.625 68.4851C111.625 43.8898 91.4222 23.8906 66.6016 23.8906ZM66.6016 105.502C45.9721 105.502 29.1824 88.8818 29.1824 68.4602C29.1824 48.0387 45.947 31.4183 66.6016 31.4183C87.2561 31.4183 104.021 48.0387 104.021 68.4602C104.021 88.8818 87.231 105.502 66.6016 105.502Z" fill="url(#paint0_linear_409_81)"/>
<defs>
<linearGradient id="paint0_linear_409_81" x1="66.6016" y1="23.8906" x2="66.6016" y2="113.055" gradientUnits="userSpaceOnUse">
<stop stop-color="#C98509"/>
<stop offset="1" stop-color="#634204"/>
</linearGradient>
</defs>
</svg>
