<svg width="105" height="104" viewBox="0 0 105 104" fill="none" xmlns="http://www.w3.org/2000/svg">
<path d="M33.4027 44.2608L33.4009 44.3096C33.3942 44.4702 33.389 44.6307 33.3853 44.7912C33.3799 45.0272 33.3754 45.263 33.3754 45.4995V58.4995C33.3754 58.7357 33.3799 58.9718 33.3853 59.2078C33.3892 59.3682 33.3944 59.5287 33.4009 59.6892L33.4027 59.7381C33.4563 60.957 33.5864 62.1713 33.7924 63.3741H59.0625C59.4976 63.3741 59.9149 63.5453 60.2226 63.85C60.5303 64.1548 60.7031 64.5681 60.7031 64.9991V73.2165L90.6929 51.9999L60.7031 30.7825V38.9999C60.7031 39.4309 60.5303 39.8442 60.2226 40.1489C59.9149 40.4537 59.4976 40.6249 59.0625 40.6249H33.7928C33.5867 41.8277 33.4564 43.042 33.4027 44.2608Z" fill="#C80003"/>
<path d="M84.9827 19.8265C79.4567 14.3621 72.6166 10.3819 65.1074 8.26098C57.5982 6.14011 49.6673 5.94855 42.0626 7.70436C34.458 9.46018 27.4301 13.1055 21.6417 18.2966C15.8534 23.4877 11.4952 30.0535 8.97833 37.3749H17.9991C19.3817 32.0939 22.0815 27.2414 25.8504 23.2629C29.6194 19.2843 34.337 16.3071 39.57 14.6046C40.8903 14.1786 42.2981 14.0912 43.6618 14.3504C45.0254 14.6096 46.3005 15.2071 47.3677 16.087C48.435 16.9668 49.2596 18.1003 49.7644 19.3815C50.2693 20.6627 50.4379 22.0498 50.2546 23.4131L48.5071 36.3938C48.4608 36.7284 48.3791 37.0573 48.2633 37.3749H57.4219V27.6249C57.4219 27.3263 57.5049 27.0335 57.6619 26.7786C57.8189 26.5237 58.0438 26.3166 58.3118 26.18C58.5798 26.0434 58.8807 25.9825 59.1813 26.0041C59.482 26.0258 59.7708 26.129 60.0161 26.3026L94.4692 50.6776C94.6818 50.8279 94.855 51.0263 94.9745 51.2563C95.094 51.4863 95.1563 51.7412 95.1563 51.9999C95.1563 52.2586 95.094 52.5135 94.9745 52.7435C94.855 52.9735 94.6818 53.1719 94.4692 53.3223L60.0161 77.6973C59.7708 77.8708 59.482 77.9741 59.1813 77.9957C58.8807 78.0173 58.5798 77.9565 58.3118 77.8198C58.0438 77.6832 57.8189 77.4761 57.6619 77.2212C57.5049 76.9663 57.4219 76.6735 57.4219 76.3749V66.6249H48.2635C48.3788 66.9425 48.4602 67.2712 48.5063 67.6056L50.2538 80.5863C50.4414 81.9506 50.2756 83.3397 49.7721 84.623C49.2686 85.9064 48.4439 87.0418 47.3755 87.9226C46.3071 88.8035 45.03 89.4007 43.6645 89.6582C42.2989 89.9158 40.8897 89.8251 39.5692 89.3948C34.3363 87.6922 29.619 84.715 25.8502 80.7366C22.0813 76.7581 19.3817 71.9058 17.9991 66.6249H8.97833C11.0501 72.6487 14.3729 78.1759 18.7326 82.8503C23.0924 87.5247 28.3924 91.2427 34.2912 93.7647C40.1901 96.2868 46.5569 97.5569 52.9815 97.4933C59.4061 97.4297 65.746 96.0339 71.5928 93.3956C69.5249 90.274 68.6063 86.5419 68.9915 82.8279C69.3768 79.1139 71.0425 75.6448 73.708 73.005C76.3736 70.3651 79.8762 68.7156 83.6259 68.3344C87.3757 67.9532 91.1435 68.8635 94.2949 70.9121C98.1839 62.4716 99.376 53.0556 97.7116 43.9254C96.0473 34.7952 91.606 26.3867 84.9825 19.8261L84.9827 19.8265Z" fill="#C80003"/>
<path d="M16.9692 58.5V45.5C16.969 43.8683 17.0913 42.2388 17.335 40.625H8.0042C6.08193 48.0888 6.08193 55.9112 8.0042 63.375H17.3353C17.0915 61.7612 16.9691 60.1317 16.9692 58.5Z" fill="#C80003"/>
<path d="M45.254 35.9646L47.0013 22.9849C47.1137 22.1651 47.0131 21.3305 46.7088 20.5601C46.4045 19.7896 45.9066 19.1089 45.2624 18.5824C45.0563 18.4134 44.8369 18.2611 44.6061 18.127L41.8296 37.3749H43.6277C44.025 37.3738 44.4084 37.2304 44.7073 36.9712C45.0062 36.712 45.2004 36.3545 45.254 35.9646Z" fill="#C80003"/>
<path d="M85.3125 71.5C82.7166 71.5 80.179 72.2624 78.0206 73.6909C75.8623 75.1194 74.18 77.1497 73.1866 79.5251C72.1932 81.9006 71.9333 84.5144 72.4397 87.0362C72.9461 89.5579 74.1962 91.8743 76.0317 93.6924C77.8673 95.5105 80.2059 96.7486 82.7519 97.2502C85.2979 97.7518 87.9369 97.4944 90.3352 96.5104C92.7335 95.5265 94.7834 93.8603 96.2255 91.7224C97.6677 89.5846 98.4375 87.0712 98.4375 84.5C98.4336 81.0534 97.0495 77.749 94.589 75.3119C92.1284 72.8748 88.7923 71.5039 85.3125 71.5ZM87.86 91.5551C87.5687 91.6993 87.2652 91.818 86.9531 91.91V94.25H83.6719V91.9102C83.3597 91.818 83.0563 91.6992 82.7648 91.5551L81.2975 90.8284C81.1031 90.7339 80.9295 90.6023 80.7866 90.4411C80.6438 90.2799 80.5346 90.0923 80.4654 89.8891C80.3961 89.6859 80.3682 89.4712 80.3831 89.2572C80.398 89.0433 80.4556 88.8343 80.5524 88.6425C80.6493 88.4507 80.7835 88.2798 80.9474 88.1396C81.1112 87.9994 81.3015 87.8927 81.5072 87.8257C81.7128 87.7587 81.9299 87.7327 82.1458 87.7491C82.3617 87.7656 82.5721 87.8242 82.765 87.9216L84.2324 88.6482C84.568 88.8135 84.9377 88.8995 85.3125 88.8995C85.6873 88.8995 86.057 88.8135 86.3927 88.6482C86.5611 88.5648 86.7027 88.4366 86.8017 88.278C86.9007 88.1193 86.9531 87.9365 86.9531 87.75C86.9531 87.5635 86.9007 87.3807 86.8017 87.222C86.7027 87.0634 86.5611 86.9352 86.3927 86.8518L82.765 85.0551C82.0516 84.7018 81.4515 84.1587 81.0322 83.4866C80.6128 82.8145 80.3907 82.0401 80.3907 81.25C80.3907 80.4599 80.6128 79.6855 81.0322 79.0134C81.4515 78.3413 82.0516 77.7982 82.765 77.4449C83.0564 77.3007 83.3598 77.1819 83.6719 77.0898V74.75H86.9531V77.0898C87.2653 77.1819 87.5688 77.3007 87.8602 77.4449L89.3275 78.1716C89.7132 78.3664 90.0055 78.7043 90.1408 79.1116C90.2761 79.5189 90.2433 79.9626 90.0497 80.3461C89.8561 80.7296 89.5173 81.0218 89.1071 81.159C88.6969 81.2961 88.2487 81.2671 87.86 81.0784L86.3927 80.3518C86.057 80.1865 85.6873 80.1005 85.3125 80.1005C84.9377 80.1005 84.568 80.1865 84.2324 80.3518C84.064 80.4352 83.9223 80.5634 83.8233 80.722C83.7243 80.8807 83.6719 81.0635 83.6719 81.25C83.6719 81.4365 83.7243 81.6193 83.8233 81.778C83.9223 81.9366 84.064 82.0648 84.2324 82.1482L87.86 83.9449C88.5735 84.2982 89.1735 84.8413 89.5928 85.5134C90.0122 86.1855 90.2343 86.9599 90.2343 87.75C90.2343 88.5401 90.0122 89.3145 89.5928 89.9866C89.1735 90.6587 88.5735 91.2018 87.86 91.5551Z" fill="#C80003"/>
<path d="M34.5983 37.375H38.5153L38.9724 34.2048C38.043 34.3552 37.1624 34.7206 36.4024 35.2714C35.6423 35.8223 35.0242 36.543 34.5983 37.375Z" fill="#C80003"/>
<path d="M20.2504 45.4999V58.4999C20.2388 64.6691 22.201 70.6832 25.8554 75.6789C29.5097 80.6747 34.6683 84.395 40.5905 86.3059C40.8482 86.3887 41.1123 86.4504 41.3802 86.4905L39.4504 73.1107C35.3637 72.8958 31.8258 69.9998 30.9348 66.0643C30.4383 63.8621 30.1607 61.617 30.1061 59.3611C30.0983 59.0735 30.0943 58.7861 30.0942 58.4989V45.4999C30.0942 45.2127 30.0981 44.9253 30.1061 44.6376C30.1607 42.3818 30.4383 40.1367 30.9348 37.9345C31.8258 33.999 35.3645 31.103 39.4504 30.8881L41.3804 17.5068C41.1124 17.5474 40.8482 17.6096 40.5905 17.6929C34.6681 19.6038 29.5095 23.3243 25.8551 28.3203C22.2007 33.3162 20.2386 39.3306 20.2504 45.4999Z" fill="#C80003"/>
<path d="M43.6277 66.625H41.8296L44.6059 85.8737C44.8367 85.7397 45.0562 85.5875 45.2622 85.4185C45.9064 84.892 46.4043 84.2113 46.7086 83.4408C47.0129 82.6704 47.1135 81.8358 47.001 81.016L45.2538 68.0351C45.2001 67.6453 45.006 67.2878 44.7071 67.0287C44.4083 66.7695 44.0249 66.6262 43.6277 66.625Z" fill="#C80003"/>
<path d="M38.9723 69.7952L38.5151 66.625H34.5981C35.024 67.457 35.642 68.1778 36.4021 68.7286C37.1622 69.2795 38.0427 69.6449 38.9723 69.7952Z" fill="#C80003"/>
</svg>
