<svg width="133" height="133" viewBox="0 0 133 133" fill="none" xmlns="http://www.w3.org/2000/svg">
<circle cx="66.5" cy="66.5" r="65" fill="white" stroke="black" stroke-width="3"/>
<path d="M46.4027 59.2608L46.4009 59.3096C46.3942 59.4702 46.389 59.6307 46.3853 59.7912C46.3799 60.0272 46.3754 60.263 46.3754 60.4995V73.4995C46.3754 73.7357 46.3799 73.9718 46.3853 74.2078C46.3892 74.3682 46.3944 74.5287 46.4009 74.6892L46.4027 74.7381C46.4563 75.957 46.5864 77.1713 46.7924 78.3741H72.0625C72.4976 78.3741 72.9149 78.5453 73.2226 78.85C73.5303 79.1548 73.7031 79.5681 73.7031 79.9991V88.2165L103.693 66.9999L73.7031 45.7825V53.9999C73.7031 54.4309 73.5303 54.8442 73.2226 55.1489C72.9149 55.4537 72.4976 55.6249 72.0625 55.6249H46.7928C46.5867 56.8277 46.4564 58.042 46.4027 59.2608Z" fill="url(#paint0_linear_409_82)"/>
<path d="M97.9827 34.8265C92.4567 29.3621 85.6166 25.3819 78.1074 23.261C70.5982 21.1401 62.6673 20.9485 55.0626 22.7044C47.458 24.4602 40.4301 28.1055 34.6417 33.2966C28.8534 38.4877 24.4952 45.0535 21.9783 52.3749H30.9991C32.3817 47.0939 35.0815 42.2414 38.8504 38.2629C42.6194 34.2843 47.337 31.3071 52.57 29.6046C53.8903 29.1786 55.2981 29.0912 56.6618 29.3504C58.0254 29.6096 59.3005 30.2071 60.3677 31.087C61.435 31.9668 62.2596 33.1003 62.7644 34.3815C63.2693 35.6627 63.4379 37.0498 63.2546 38.4131L61.5071 51.3938C61.4608 51.7284 61.3791 52.0573 61.2633 52.3749H70.4219V42.6249C70.4219 42.3263 70.5049 42.0335 70.6619 41.7786C70.8189 41.5237 71.0438 41.3166 71.3118 41.18C71.5798 41.0434 71.8807 40.9825 72.1813 41.0041C72.482 41.0258 72.7708 41.129 73.0161 41.3026L107.469 65.6776C107.682 65.8279 107.855 66.0263 107.974 66.2563C108.094 66.4863 108.156 66.7412 108.156 66.9999C108.156 67.2586 108.094 67.5135 107.974 67.7435C107.855 67.9735 107.682 68.1719 107.469 68.3223L73.0161 92.6973C72.7708 92.8708 72.482 92.9741 72.1813 92.9957C71.8807 93.0173 71.5798 92.9565 71.3118 92.8198C71.0438 92.6832 70.8189 92.4761 70.6619 92.2212C70.5049 91.9663 70.4219 91.6735 70.4219 91.3749V81.6249H61.2635C61.3788 81.9425 61.4602 82.2712 61.5063 82.6056L63.2538 95.5863C63.4414 96.9506 63.2756 98.3397 62.7721 99.623C62.2686 100.906 61.4439 102.042 60.3755 102.923C59.3071 103.803 58.03 104.401 56.6645 104.658C55.2989 104.916 53.8897 104.825 52.5692 104.395C47.3363 102.692 42.619 99.715 38.8502 95.7366C35.0813 91.7581 32.3817 86.9058 30.9991 81.6249H21.9783C24.0501 87.6487 27.3729 93.1759 31.7326 97.8503C36.0924 102.525 41.3924 106.243 47.2912 108.765C53.1901 111.287 59.5569 112.557 65.9815 112.493C72.4061 112.43 78.746 111.034 84.5928 108.396C82.5249 105.274 81.6063 101.542 81.9915 97.8279C82.3768 94.1139 84.0425 90.6448 86.708 88.005C89.3736 85.3651 92.8762 83.7156 96.6259 83.3344C100.376 82.9532 104.144 83.8635 107.295 85.9121C111.184 77.4716 112.376 68.0556 110.712 58.9254C109.047 49.7952 104.606 41.3867 97.9825 34.8261L97.9827 34.8265Z" fill="url(#paint1_linear_409_82)"/>
<path d="M29.9692 73.5V60.5C29.969 58.8683 30.0913 57.2388 30.335 55.625H21.0042C19.0819 63.0888 19.0819 70.9112 21.0042 78.375H30.3353C30.0915 76.7612 29.9691 75.1317 29.9692 73.5Z" fill="url(#paint2_linear_409_82)"/>
<path d="M58.254 50.9646L60.0013 37.9849C60.1137 37.1651 60.0131 36.3305 59.7088 35.5601C59.4045 34.7896 58.9066 34.1089 58.2624 33.5824C58.0563 33.4134 57.8369 33.2611 57.6061 33.127L54.8296 52.3749H56.6277C57.025 52.3738 57.4084 52.2304 57.7073 51.9712C58.0062 51.712 58.2004 51.3545 58.254 50.9646Z" fill="url(#paint3_linear_409_82)"/>
<path d="M98.3125 86.5C95.7166 86.5 93.179 87.2624 91.0206 88.6909C88.8623 90.1194 87.18 92.1497 86.1866 94.5251C85.1932 96.9006 84.9333 99.5144 85.4397 102.036C85.9461 104.558 87.1962 106.874 89.0317 108.692C90.8673 110.51 93.2059 111.749 95.7519 112.25C98.2979 112.752 100.937 112.494 103.335 111.51C105.734 110.526 107.783 108.86 109.226 106.722C110.668 104.585 111.438 102.071 111.438 99.5C111.434 96.0534 110.05 92.749 107.589 90.3119C105.128 87.8748 101.792 86.5039 98.3125 86.5ZM100.86 106.555C100.569 106.699 100.265 106.818 99.9531 106.91V109.25H96.6719V106.91C96.3597 106.818 96.0563 106.699 95.7648 106.555L94.2975 105.828C94.1031 105.734 93.9295 105.602 93.7866 105.441C93.6438 105.28 93.5346 105.092 93.4654 104.889C93.3961 104.686 93.3682 104.471 93.3831 104.257C93.398 104.043 93.4556 103.834 93.5524 103.643C93.6493 103.451 93.7835 103.28 93.9474 103.14C94.1112 102.999 94.3015 102.893 94.5072 102.826C94.7128 102.759 94.9299 102.733 95.1458 102.749C95.3617 102.766 95.5721 102.824 95.765 102.922L97.2324 103.648C97.568 103.813 97.9377 103.9 98.3125 103.9C98.6873 103.9 99.057 103.813 99.3927 103.648C99.5611 103.565 99.7027 103.437 99.8017 103.278C99.9007 103.119 99.9531 102.936 99.9531 102.75C99.9531 102.564 99.9007 102.381 99.8017 102.222C99.7027 102.063 99.5611 101.935 99.3927 101.852L95.765 100.055C95.0516 99.7018 94.4515 99.1587 94.0322 98.4866C93.6128 97.8145 93.3907 97.0401 93.3907 96.25C93.3907 95.4599 93.6128 94.6855 94.0322 94.0134C94.4515 93.3413 95.0516 92.7982 95.765 92.4449C96.0564 92.3007 96.3598 92.1819 96.6719 92.0898V89.75H99.9531V92.0898C100.265 92.1819 100.569 92.3007 100.86 92.4449L102.328 93.1716C102.713 93.3664 103.006 93.7043 103.141 94.1116C103.276 94.5189 103.243 94.9626 103.05 95.3461C102.856 95.7296 102.517 96.0218 102.107 96.159C101.697 96.2961 101.249 96.2671 100.86 96.0784L99.3927 95.3518C99.057 95.1865 98.6873 95.1005 98.3125 95.1005C97.9377 95.1005 97.568 95.1865 97.2324 95.3518C97.064 95.4352 96.9223 95.5634 96.8233 95.722C96.7243 95.8807 96.6719 96.0635 96.6719 96.25C96.6719 96.4365 96.7243 96.6193 96.8233 96.778C96.9223 96.9366 97.064 97.0648 97.2324 97.1482L100.86 98.9449C101.573 99.2982 102.173 99.8413 102.593 100.513C103.012 101.185 103.234 101.96 103.234 102.75C103.234 103.54 103.012 104.315 102.593 104.987C102.173 105.659 101.573 106.202 100.86 106.555Z" fill="url(#paint4_linear_409_82)"/>
<path d="M47.5983 52.375H51.5153L51.9724 49.2048C51.043 49.3552 50.1624 49.7206 49.4024 50.2714C48.6423 50.8223 48.0242 51.543 47.5983 52.375Z" fill="url(#paint5_linear_409_82)"/>
<path d="M33.2504 60.4999V73.4999C33.2388 79.6691 35.201 85.6832 38.8554 90.6789C42.5097 95.6747 47.6683 99.395 53.5905 101.306C53.8482 101.389 54.1123 101.45 54.3802 101.491L52.4504 88.1107C48.3637 87.8958 44.8258 84.9998 43.9348 81.0643C43.4383 78.8621 43.1607 76.617 43.1061 74.3611C43.0983 74.0735 43.0943 73.7861 43.0942 73.4989V60.4999C43.0942 60.2127 43.0981 59.9253 43.1061 59.6376C43.1607 57.3818 43.4383 55.1367 43.9348 52.9345C44.8258 48.999 48.3645 46.103 52.4504 45.8881L54.3804 32.5068C54.1124 32.5474 53.8482 32.6096 53.5905 32.6929C47.6681 34.6038 42.5095 38.3243 38.8551 43.3203C35.2007 48.3162 33.2386 54.3306 33.2504 60.4999Z" fill="url(#paint6_linear_409_82)"/>
<path d="M56.6277 81.625H54.8296L57.6059 100.874C57.8367 100.74 58.0562 100.588 58.2622 100.419C58.9064 99.892 59.4043 99.2113 59.7086 98.4408C60.0129 97.6704 60.1135 96.8358 60.001 96.016L58.2538 83.0351C58.2001 82.6453 58.006 82.2878 57.7071 82.0287C57.4083 81.7695 57.0249 81.6262 56.6277 81.625Z" fill="url(#paint7_linear_409_82)"/>
<path d="M51.9723 84.7952L51.5151 81.625H47.5981C48.024 82.457 48.642 83.1778 49.4021 83.7286C50.1622 84.2795 51.0427 84.6449 51.9723 84.7952Z" fill="url(#paint8_linear_409_82)"/>
<defs>
<linearGradient id="paint0_linear_409_82" x1="75.0342" y1="45.7825" x2="75.0342" y2="88.2165" gradientUnits="userSpaceOnUse">
<stop stop-color="#C98509"/>
<stop offset="1" stop-color="#634204"/>
</linearGradient>
<linearGradient id="paint1_linear_409_82" x1="66.7106" y1="21.5154" x2="66.7106" y2="112.496" gradientUnits="userSpaceOnUse">
<stop stop-color="#C98509"/>
<stop offset="1" stop-color="#634204"/>
</linearGradient>
<linearGradient id="paint2_linear_409_82" x1="24.9489" y1="55.625" x2="24.9489" y2="78.375" gradientUnits="userSpaceOnUse">
<stop stop-color="#C98509"/>
<stop offset="1" stop-color="#634204"/>
</linearGradient>
<linearGradient id="paint3_linear_409_82" x1="57.4378" y1="33.127" x2="57.4378" y2="52.3749" gradientUnits="userSpaceOnUse">
<stop stop-color="#C98509"/>
<stop offset="1" stop-color="#634204"/>
</linearGradient>
<linearGradient id="paint4_linear_409_82" x1="98.3125" y1="86.5" x2="98.3125" y2="112.5" gradientUnits="userSpaceOnUse">
<stop stop-color="#C98509"/>
<stop offset="1" stop-color="#634204"/>
</linearGradient>
<linearGradient id="paint5_linear_409_82" x1="49.7854" y1="49.2048" x2="49.7854" y2="52.375" gradientUnits="userSpaceOnUse">
<stop stop-color="#C98509"/>
<stop offset="1" stop-color="#634204"/>
</linearGradient>
<linearGradient id="paint6_linear_409_82" x1="43.8154" y1="32.5068" x2="43.8154" y2="101.491" gradientUnits="userSpaceOnUse">
<stop stop-color="#C98509"/>
<stop offset="1" stop-color="#634204"/>
</linearGradient>
<linearGradient id="paint7_linear_409_82" x1="57.4377" y1="81.625" x2="57.4377" y2="100.874" gradientUnits="userSpaceOnUse">
<stop stop-color="#C98509"/>
<stop offset="1" stop-color="#634204"/>
</linearGradient>
<linearGradient id="paint8_linear_409_82" x1="49.7852" y1="81.625" x2="49.7852" y2="84.7952" gradientUnits="userSpaceOnUse">
<stop stop-color="#C98509"/>
<stop offset="1" stop-color="#634204"/>
</linearGradient>
</defs>
</svg>
