<svg width="92" height="91" viewBox="0 0 92 91" fill="none" xmlns="http://www.w3.org/2000/svg">
<path fill-rule="evenodd" clip-rule="evenodd" d="M10.5237 53.6468C11.3929 57.2592 12.841 60.7096 14.8093 63.8716L11.8259 70.5157L19.7428 78.3467L26.4579 75.3968C29.6552 77.3443 33.1448 78.7766 36.7978 79.6363L39.4356 86.4149H50.6316L53.2703 79.6347C56.9225 78.775 60.4107 77.3427 63.6074 75.3958L70.3246 78.3467L78.2415 70.5161L75.3079 63.9825H74.7884C74.4574 63.9825 74.1302 63.9532 73.8097 63.8958L70.6917 64.4096C66.4245 65.1128 61.7825 65.8034 57.5429 64.6119C56.8001 64.4031 56.0858 64.1425 55.3973 63.8331C52.332 65.5319 48.7977 66.5016 45.0338 66.5016C33.3063 66.5016 23.8012 57.0998 23.8012 45.4999C23.8012 33.8998 33.3063 24.4981 45.0338 24.4981C48.7442 24.4981 52.2315 25.4403 55.2663 27.0943C57.7697 25.2126 60.0715 23.1184 60.0715 19.753V13.7134C57.8944 12.7042 55.6158 11.916 53.2696 11.3637L50.632 4.58496H39.4358L36.7976 11.3648C33.1451 12.2243 29.6563 13.6567 26.4597 15.6038L19.7431 12.6534L11.8261 20.4842L14.8095 27.1284C12.8412 30.2905 11.3931 33.7409 10.5239 37.3533L3.66919 39.9632V51.0374L10.5237 53.6468ZM50.9974 58.3738H42.3918V32.6263H50.9974V58.3738ZM69.2255 33.9929C69.2255 37.5607 71.6827 37.776 65.2826 41.4115C64.5973 41.8011 64.361 42.6665 64.7547 43.3444C65.1485 44.0223 66.0234 44.256 66.7088 43.8666C66.9734 43.7162 67.2804 43.534 67.614 43.3211C67.8448 44.3692 68.3792 45.3078 69.1204 46.041C69.4905 46.4071 69.9124 46.7221 70.374 46.9743C69.6578 47.8994 69.231 49.0582 69.2309 50.3144C69.231 51.8765 69.8943 53.3482 71.0639 54.395C69.8945 55.4394 69.2309 56.9155 69.231 58.4751C69.231 59.6382 69.5967 60.7174 70.2188 61.605C65.3976 62.3995 61.6725 62.8168 58.3283 61.8767C56.7852 61.4431 55.3232 60.7204 53.8723 59.6124V31.5855C55.1962 30.6559 56.5615 29.7322 57.818 28.7302C60.6594 26.4644 62.9459 23.7975 62.9459 19.7533V11.9368C68.1411 11.9368 72.4241 16.1365 72.4241 21.3105V27.3737C72.1833 29.1004 71.9055 29.0698 70.8583 30.1057C69.851 31.1024 69.2255 32.4782 69.2255 33.9929ZM83.8997 36.6513H74.7881C73.3127 36.6513 72.1005 35.4523 72.1005 33.9927C72.1005 32.5374 73.3161 31.3288 74.7881 31.3288L83.9 31.329C85.3681 31.329 86.5932 32.5404 86.5932 33.9925C86.593 35.4528 85.3742 36.6513 83.8997 36.6513ZM85.6378 44.8176C81.4419 44.8176 77.2462 44.8121 73.0503 44.8121C71.5749 44.8121 70.3625 43.6131 70.3625 42.1537C70.3625 40.6944 71.5749 39.495 73.0503 39.495C77.2462 39.495 81.4419 39.4895 85.6378 39.4895C87.1101 39.4897 88.3309 40.6985 88.3309 42.1539C88.3309 43.606 87.1058 44.8176 85.6378 44.8176ZM82.7428 52.973C80.0914 52.973 77.4426 52.9701 74.7882 52.9785C73.3164 52.9785 72.0949 51.7701 72.0947 50.3142C72.0949 48.8581 73.317 47.6559 74.7882 47.6559H82.7428C84.2182 47.6559 85.4304 48.8549 85.4304 50.3142C85.4304 51.7736 84.2184 52.973 82.7428 52.973ZM74.7881 61.139C73.3198 61.139 72.0949 59.927 72.0949 58.4747C72.0949 57.0756 73.2363 55.8896 74.6465 55.8148C76.4906 55.8603 78.4237 55.8149 80.2824 55.8165C81.758 55.8165 82.9755 57.0161 82.9755 58.4754C82.9755 59.9311 81.7538 61.139 80.2824 61.139H74.7881ZM75.2991 27.0369V21.3107C75.2991 19.6826 74.9697 18.1002 74.3565 16.6416L78.2413 20.4844L75.2991 27.0369Z" fill="#C80003"/>
</svg>
