<svg width="49" height="49" viewBox="0 0 49 49" fill="none" xmlns="http://www.w3.org/2000/svg">
<path fill-rule="evenodd" clip-rule="evenodd" d="M11.4481 0.756856C10.0062 0.754146 8.57804 1.03151 7.24554 1.57288C5.91303 2.11425 4.70246 2.90889 3.68327 3.91146C2.66407 4.91403 1.85633 6.10479 1.30648 7.41507C0.756626 8.72536 0.47549 10.1294 0.479161 11.5468V37.4538C0.47549 38.8712 0.756626 40.2752 1.30648 41.5855C1.85633 42.8958 2.66407 44.0864 3.68327 45.089C4.70246 46.0915 5.91303 46.8864 7.24554 47.4277C8.57804 47.9691 10.0062 48.2465 11.4481 48.2438H38.0241C39.4662 48.2465 40.8947 47.9692 42.2276 47.4279C43.5605 46.8866 44.7716 46.092 45.7913 45.0895C46.8111 44.087 47.6195 42.8964 48.1701 41.586C48.7207 40.2757 49.0027 38.8715 48.9999 37.4538V11.5468C49.0027 10.1291 48.7207 8.72473 48.1701 7.4144C47.6195 6.10408 46.8111 4.91361 45.7913 3.91113C44.7716 2.90865 43.5605 2.114 42.2276 1.57271C40.8947 1.03142 39.4662 0.754149 38.0241 0.756856H11.4481ZM33.734 10.5473H38.6091L28.065 22.412L40.4686 38.4602H30.7185L23.2039 28.6903L14.4775 38.4602H9.60247L20.9683 25.7806L9.05928 10.561H18.9974L25.8295 19.516L33.7967 10.561L33.734 10.5473ZM32.0626 35.612L14.6099 13.2379H17.4931L34.716 35.612H32.0626Z" fill="white"/>
</svg>
